<svg width="164" height="134" viewBox="0 0 164 134" fill="none" xmlns="http://www.w3.org/2000/svg">
	<path fill-rule="evenodd" clip-rule="evenodd" d="M118.182 4.31081C119.179 4.31081 119.986 3.50304 119.986 2.5066C119.986 1.51016 119.179 0.702393 118.182 0.702393C117.186 0.702393 116.378 1.51016 116.378 2.5066C116.378 3.50304 117.186 4.31081 118.182 4.31081ZM29.153 19.897C31.3131 19.897 33.0642 18.1458 33.0642 15.9857C33.0642 13.8256 31.3131 12.0745 29.153 12.0745C26.9928 12.0745 25.2417 13.8256 25.2417 15.9857C25.2417 18.1458 26.9928 19.897 29.153 19.897ZM29.1526 17.7163C30.1083 17.7163 30.8831 16.9415 30.8831 15.9858C30.8831 15.03 30.1083 14.2552 29.1526 14.2552C28.1969 14.2552 27.4221 15.03 27.4221 15.9858C27.4221 16.9415 28.1969 17.7163 29.1526 17.7163ZM9.28307 58.0801C12.1925 58.0801 14.551 55.7215 14.551 52.8121C14.551 49.9027 12.1925 47.5442 9.28307 47.5442C6.37367 47.5442 4.01514 49.9027 4.01514 52.8121C4.01514 55.7215 6.37367 58.0801 9.28307 58.0801ZM9.28325 55.3305C10.6742 55.3305 11.8018 54.2029 11.8018 52.8119C11.8018 51.4209 10.6742 50.2933 9.28325 50.2933C7.89226 50.2933 6.76465 51.4209 6.76465 52.8119C6.76465 54.2029 7.89226 55.3305 9.28325 55.3305ZM143.03 124.366C145.101 124.366 146.78 122.687 146.78 120.616C146.78 118.544 145.101 116.865 143.03 116.865C140.958 116.865 139.279 118.544 139.279 120.616C139.279 122.687 140.958 124.366 143.03 124.366ZM143.03 122.415C144.023 122.415 144.829 121.609 144.829 120.616C144.829 119.622 144.023 118.817 143.03 118.817C142.037 118.817 141.231 119.622 141.231 120.616C141.231 121.609 142.037 122.415 143.03 122.415ZM83 134C118.622 134 147.5 105.122 147.5 69.4998C147.5 33.8774 118.622 4.99976 83 4.99976C47.3776 4.99976 18.5 33.8774 18.5 69.4998C18.5 105.122 47.3776 134 83 134ZM18.4691 129.491H5.93016C5.82287 129.491 5.7165 129.487 5.6112 129.479C2.77736 129.413 0.500143 127.031 0.5 124.103C0.500824 122.676 1.05326 121.308 2.03577 120.299C2.5394 119.782 3.13487 119.382 3.78274 119.114C3.7719 118.969 3.76638 118.822 3.76638 118.674C3.76728 117.168 4.35019 115.724 5.3869 114.66C6.42361 113.596 7.82919 112.999 9.29443 113C11.1714 113.002 12.8285 113.967 13.8244 115.439C14.2973 115.267 14.8064 115.173 15.3367 115.173C17.6797 115.176 19.604 117.012 19.8271 119.359C22.072 119.862 23.752 121.917 23.75 124.375C23.7477 127.207 21.5126 129.501 18.7569 129.5C18.6603 129.5 18.5644 129.497 18.4691 129.491ZM151.354 29.744H160.252C160.32 29.7478 160.388 29.7497 160.457 29.7498C162.412 29.7506 163.998 28.1863 164 26.2555C164.001 24.58 162.809 23.1786 161.216 22.8357C161.058 21.2352 159.692 19.9838 158.029 19.9818C157.653 19.9816 157.292 20.0454 156.956 20.1628C156.249 19.159 155.073 18.5014 153.741 18.4998C152.701 18.4991 151.704 18.9064 150.968 19.6319C150.232 20.3575 149.819 21.3419 149.818 22.3685C149.818 22.4695 149.822 22.5696 149.83 22.6686C149.37 22.8511 148.947 23.1243 148.59 23.4768C147.893 24.1644 147.501 25.0974 147.5 26.0704C147.5 28.0668 149.116 29.6905 151.127 29.7357C151.202 29.7412 151.278 29.744 151.354 29.744Z" fill="#E5F9FF"/>
	<path d="M30.959 63.0326C29.7592 58.555 32.4164 53.9527 36.894 52.7529L88.3786 38.9576C92.8561 37.7579 97.4585 40.4151 98.6583 44.8926L114.585 104.333C115.785 108.811 113.128 113.413 108.65 114.613L57.1657 128.408C52.6882 129.608 48.0858 126.951 46.886 122.473L30.959 63.0326Z" fill="white" fill-opacity="0.5"/>
	<path d="M69.7608 27.1239C70.8126 22.6093 75.3251 19.8021 79.8397 20.854L131.75 32.9484C136.265 34.0003 139.072 38.5127 138.02 43.0273L122.032 111.65C120.98 116.164 116.468 118.972 111.953 117.92L60.0425 105.825C55.5279 104.773 52.7208 100.261 53.7727 95.7464L69.7608 27.1239Z" fill="white" fill-opacity="0.5"/>
	<path fill-rule="evenodd" clip-rule="evenodd" d="M79.7207 21.3649C79.381 21.2858 79.0415 21.23 78.704 21.1964L78.8079 20.1524C79.1905 20.1905 79.5747 20.2537 79.9587 20.3431L80.957 20.5757L80.719 21.5975L79.7207 21.3649ZM84.7121 22.5279L82.7155 22.0627L82.9536 21.0409L84.9501 21.5061L84.7121 22.5279ZM88.7052 23.4582L86.7086 22.993L86.9467 21.9712L88.9432 22.4364L88.7052 23.4582ZM92.6983 24.3885L90.7017 23.9234L90.9398 22.9016L92.9364 23.3667L92.6983 24.3885ZM96.6914 25.3189L94.6949 24.8537L94.9329 23.8319L96.9295 24.2971L96.6914 25.3189ZM100.685 26.2492L98.688 25.7841L98.926 24.7623L100.923 25.2274L100.685 26.2492ZM104.678 27.1796L102.681 26.7144L102.919 25.6926L104.916 26.1578L104.678 27.1796ZM108.671 28.1099L106.674 27.6447L106.912 26.6229L108.909 27.0881L108.671 28.1099ZM112.664 29.0402L110.667 28.5751L110.905 27.5533L112.902 28.0184L112.664 29.0402ZM116.657 29.9706L114.66 29.5054L114.898 28.4836L116.895 28.9488L116.657 29.9706ZM120.65 30.9009L118.654 30.4358L118.892 29.414L120.888 29.8791L120.65 30.9009ZM124.643 31.8313L122.647 31.3661L122.885 30.3443L124.881 30.8095L124.643 31.8313ZM128.636 32.7616L126.64 32.2964L126.878 31.2746L128.874 31.7398L128.636 32.7616ZM131.631 33.4594L130.633 33.2268L130.871 32.205L131.869 32.4376C132.253 32.527 132.626 32.6402 132.986 32.7751L132.618 33.7575C132.3 33.6385 131.971 33.5385 131.631 33.4594ZM76.6519 21.2628C75.969 21.376 75.3087 21.5786 74.6867 21.8611L74.2529 20.9058C74.9573 20.5859 75.7058 20.3561 76.4804 20.2278L76.6519 21.2628ZM135.927 36.1293C135.494 35.6011 134.992 35.1274 134.429 34.7241L135.04 33.8714C135.679 34.3289 136.248 34.8658 136.739 35.4642L135.927 36.1293ZM72.9416 22.9466C72.4134 23.3797 71.9398 23.8824 71.5364 24.445L70.6838 23.8337C71.1412 23.1956 71.6781 22.6258 72.2765 22.1353L72.9416 22.9466ZM137.611 39.8396C137.498 39.1567 137.296 38.4963 137.013 37.8744L137.968 37.4406C138.288 38.145 138.518 38.8935 138.646 39.6681L137.611 39.8396ZM70.5698 26.2565C70.4508 26.5741 70.3508 26.9032 70.2717 27.2429L70.0366 28.2521L69.0148 28.014L69.2499 27.0049C69.3394 26.6209 69.4525 26.2482 69.5874 25.8882L70.5698 26.2565ZM137.509 42.9084C137.588 42.5687 137.644 42.2292 137.678 41.8917L138.722 41.9956C138.684 42.3782 138.62 42.7624 138.531 43.1464L138.296 44.1556L137.274 43.9175L137.509 42.9084ZM69.5663 30.2704L69.0961 32.2887L68.0743 32.0506L68.5445 30.0323L69.5663 30.2704ZM136.334 47.9541L136.804 45.9358L137.826 46.1739L137.355 48.1922L136.334 47.9541ZM68.6259 34.307L68.1556 36.3253L67.1338 36.0873L67.6041 34.0689L68.6259 34.307ZM135.393 51.9908L135.863 49.9724L136.885 50.2105L136.415 52.2288L135.393 51.9908ZM67.6854 38.3436L67.2151 40.3619L66.1933 40.1239L66.6636 38.1056L67.6854 38.3436ZM134.453 56.0274L134.923 54.0091L135.945 54.2471L135.474 56.2654L134.453 56.0274ZM66.7449 42.3803L66.2747 44.3986L65.2529 44.1605L65.7231 42.1422L66.7449 42.3803ZM133.512 60.064L133.982 58.0457L135.004 58.2837L134.534 60.3021L133.512 60.064ZM65.8044 46.4169L65.3342 48.4352L64.3124 48.1971L64.7826 46.1788L65.8044 46.4169ZM132.572 64.1006L133.042 62.0823L134.064 62.3204L133.593 64.3387L132.572 64.1006ZM64.8639 50.4535L64.3937 52.4718L63.3719 52.2337L63.8421 50.2154L64.8639 50.4535ZM131.631 68.1372L132.101 66.1189L133.123 66.357L132.653 68.3753L131.631 68.1372ZM63.9235 54.4901L63.4532 56.5084L62.4314 56.2704L62.9017 54.252L63.9235 54.4901ZM130.691 72.1738L131.161 70.1555L132.183 70.3936L131.713 72.4119L130.691 72.1738ZM62.983 58.5267L62.5128 60.545L61.491 60.307L61.9612 58.2887L62.983 58.5267ZM129.75 76.2105L130.22 74.1922L131.242 74.4302L130.772 76.4485L129.75 76.2105ZM62.0425 62.5633L61.5723 64.5817L60.5505 64.3436L61.0207 62.3253L62.0425 62.5633ZM128.81 80.2471L129.28 78.2288L130.302 78.4668L129.832 80.4852L128.81 80.2471ZM61.102 66.6L60.6318 68.6183L59.61 68.3802L60.0802 66.3619L61.102 66.6ZM127.869 84.2837L128.34 82.2654L129.361 82.5035L128.891 84.5218L127.869 84.2837ZM60.1616 70.6366L59.6913 72.6549L58.6695 72.4168L59.1398 70.3985L60.1616 70.6366ZM126.929 88.3203L127.399 86.302L128.421 86.5401L127.951 88.5584L126.929 88.3203ZM59.2211 74.6732L58.7508 76.6915L57.729 76.4534L58.1993 74.4351L59.2211 74.6732ZM125.988 92.3569L126.459 90.3386L127.48 90.5767L127.01 92.595L125.988 92.3569ZM58.2806 78.7098L57.8104 80.7281L56.7886 80.4901L57.2588 78.4718L58.2806 78.7098ZM125.048 96.3936L125.518 94.3752L126.54 94.6133L126.07 96.6316L125.048 96.3936ZM57.3401 82.7464L56.8699 84.7647L55.8481 84.5267L56.3183 82.5084L57.3401 82.7464ZM124.107 100.43L124.578 98.4119L125.599 98.6499L125.129 100.668L124.107 100.43ZM56.3997 86.7831L55.9294 88.8014L54.9076 88.5633L55.3779 86.545L56.3997 86.7831ZM123.167 104.467L123.637 102.448L124.659 102.687L124.189 104.705L123.167 104.467ZM55.4592 90.8197L54.9889 92.838L53.9671 92.5999L54.4374 90.5816L55.4592 90.8197ZM122.226 108.503L122.697 106.485L123.718 106.723L123.248 108.741L122.226 108.503ZM54.5187 94.8563L54.2836 95.8654C54.2044 96.2052 54.1486 96.5446 54.115 96.8821L53.071 96.7782C53.1091 96.3956 53.1723 96.0114 53.2618 95.6274L53.4969 94.6182L54.5187 94.8563ZM121.521 111.531L121.756 110.522L122.778 110.76L122.543 111.769C122.453 112.153 122.34 112.526 122.205 112.886L121.223 112.517C121.342 112.2 121.442 111.871 121.521 111.531ZM54.1815 98.9342C54.2946 99.6172 54.4972 100.277 54.7797 100.899L53.8244 101.333C53.5045 100.629 53.2748 99.8804 53.1464 99.1057L54.1815 98.9342ZM118.851 115.827C119.379 115.394 119.853 114.891 120.256 114.329L121.109 114.94C120.652 115.578 120.115 116.148 119.516 116.639L118.851 115.827ZM55.8653 102.644C56.2983 103.173 56.8011 103.646 57.3637 104.05L56.7524 104.902C56.1142 104.445 55.5444 103.908 55.0539 103.31L55.8653 102.644ZM115.141 117.511C115.824 117.398 116.484 117.195 117.106 116.913L117.54 117.868C116.835 118.188 116.087 118.418 115.312 118.546L115.141 117.511ZM59.1751 105.016C59.4928 105.135 59.8219 105.235 60.1616 105.314L61.1599 105.547L60.9218 106.569L59.9235 106.336C59.5395 106.247 59.1669 106.134 58.8069 105.999L59.1751 105.016ZM112.072 117.409C112.412 117.488 112.751 117.544 113.089 117.577L112.985 118.621C112.602 118.583 112.218 118.52 111.834 118.431L110.836 118.198L111.074 117.176L112.072 117.409ZM63.1564 106.012L65.153 106.477L64.9149 107.499L62.9184 107.034L63.1564 106.012ZM67.1496 106.943L69.1461 107.408L68.908 108.43L66.9115 107.964L67.1496 106.943ZM71.1427 107.873L73.1392 108.338L72.9012 109.36L70.9046 108.895L71.1427 107.873ZM75.1358 108.803L77.1323 109.268L76.8943 110.29L74.8977 109.825L75.1358 108.803ZM79.1289 109.734L81.1254 110.199L80.8874 111.221L78.8908 110.755L79.1289 109.734ZM83.122 110.664L85.1186 111.129L84.8805 112.151L82.8839 111.686L83.122 110.664ZM87.1151 111.594L89.1117 112.059L88.8736 113.081L86.8771 112.616L87.1151 111.594ZM91.1082 112.525L93.1048 112.99L92.8667 114.012L90.8702 113.546L91.1082 112.525ZM95.1013 113.455L97.0979 113.92L96.8598 114.942L94.8633 114.477L95.1013 113.455ZM99.0945 114.385L101.091 114.85L100.853 115.872L98.8564 115.407L99.0945 114.385ZM103.088 115.316L105.084 115.781L104.846 116.803L102.85 116.337L103.088 115.316ZM107.081 116.246L109.077 116.711L108.839 117.733L106.843 117.268L107.081 116.246Z" fill="#2FC6F6"/>
	<path fill-rule="evenodd" clip-rule="evenodd" d="M37.0296 53.2596C36.6927 53.3499 36.367 53.4606 36.0535 53.59L35.6532 52.6203C36.0085 52.4736 36.3772 52.3482 36.7581 52.2462L37.7482 51.9809L38.0197 52.9943L37.0296 53.2596ZM41.9801 51.9331L39.9999 52.4637L39.7284 51.4503L41.7085 50.9197L41.9801 51.9331ZM45.9404 50.872L43.9603 51.4026L43.6887 50.3891L45.6689 49.8586L45.9404 50.872ZM49.9008 49.8108L47.9206 50.3414L47.6491 49.328L49.6292 48.7974L49.9008 49.8108ZM53.8611 48.7496L51.881 49.2802L51.6094 48.2668L53.5896 47.7362L53.8611 48.7496ZM57.8215 47.6884L55.8413 48.219L55.5698 47.2056L57.55 46.675L57.8215 47.6884ZM61.7819 46.6273L59.8017 47.1579L59.5301 46.1444L61.5103 45.6139L61.7819 46.6273ZM65.7422 45.5661L63.762 46.0967L63.4905 45.0833L65.4707 44.5527L65.7422 45.5661ZM69.7026 44.5049L67.7224 45.0355L67.4508 44.0221L69.431 43.4915L69.7026 44.5049ZM73.6629 43.4438L71.6827 43.9743L71.4112 42.9609L73.3914 42.4303L73.6629 43.4438ZM77.6233 42.3826L75.6431 42.9132L75.3715 41.8998L77.3517 41.3692L77.6233 42.3826ZM81.5836 41.3214L79.6034 41.852L79.3319 40.8386L81.3121 40.308L81.5836 41.3214ZM85.544 40.2602L83.5638 40.7908L83.2922 39.7774L85.2724 39.2468L85.544 40.2602ZM88.5142 39.4644L87.5241 39.7297L87.2526 38.7162L88.2427 38.4509C88.6235 38.3489 89.0055 38.2731 89.3866 38.2224L89.5248 39.2625C89.1886 39.3071 88.8511 39.3741 88.5142 39.4644ZM34.2748 54.6157C33.7258 55.0373 33.2389 55.5272 32.8235 56.0694L31.9907 55.4313C32.4612 54.8172 33.0131 54.2618 33.6358 53.7836L34.2748 54.6157ZM93.5618 39.7946C92.9309 39.5328 92.2643 39.352 91.578 39.2614L91.7154 38.2212C92.4938 38.324 93.2494 38.529 93.964 38.8256L93.5618 39.7946ZM31.7959 57.8493C31.534 58.4802 31.3532 59.1468 31.2626 59.833L30.2224 59.6957C30.3252 58.9173 30.5303 58.1617 30.8269 57.4471L31.7959 57.8493ZM96.7954 42.2736C96.3738 41.7246 95.8839 41.2377 95.3416 40.8222L95.9797 39.9894C96.5939 40.46 97.1492 41.0118 97.6275 41.6346L96.7954 42.2736ZM31.2637 61.8863C31.3084 62.2225 31.3753 62.5599 31.4656 62.8968L31.731 63.8875L30.7176 64.159L30.4522 63.1684C30.3501 62.7875 30.2743 62.4055 30.2237 62.0244L31.2637 61.8863ZM98.1515 45.0284C98.0612 44.6915 97.9504 44.3658 97.821 44.0523L98.7908 43.6519C98.9375 44.0073 99.0628 44.376 99.1649 44.7569L99.4303 45.7475L98.4169 46.0191L98.1515 45.0284ZM32.2619 65.8688L32.7928 67.8502L31.7794 68.1217L31.2485 66.1404L32.2619 65.8688ZM99.4787 49.9818L98.9478 48.0004L99.9612 47.7289L100.492 49.7102L99.4787 49.9818ZM33.3237 69.8315L33.8546 71.8129L32.8412 72.0844L32.3103 70.1031L33.3237 69.8315ZM100.541 53.9445L100.01 51.9631L101.023 51.6916L101.554 53.6729L100.541 53.9445ZM34.3855 73.7943L34.9164 75.7756L33.903 76.0472L33.3721 74.0658L34.3855 73.7943ZM101.602 57.9072L101.071 55.9258L102.085 55.6543L102.616 57.6357L101.602 57.9072ZM35.4474 77.757L35.9783 79.7383L34.9648 80.0099L34.4339 78.0285L35.4474 77.757ZM102.664 61.8699L102.133 59.8886L103.147 59.617L103.678 61.5984L102.664 61.8699ZM36.5092 81.7197L37.0401 83.701L36.0266 83.9726L35.4957 81.9912L36.5092 81.7197ZM103.726 65.8326L103.195 63.8513L104.208 63.5797L104.739 65.5611L103.726 65.8326ZM37.571 85.6824L38.1019 87.6637L37.0884 87.9353L36.5575 85.9539L37.571 85.6824ZM104.788 69.7953L104.257 67.814L105.27 67.5424L105.801 69.5238L104.788 69.7953ZM38.6328 89.6451L39.1637 91.6264L38.1502 91.898L37.6193 89.9166L38.6328 89.6451ZM105.85 73.758L105.319 71.7767L106.332 71.5051L106.863 73.4865L105.85 73.758ZM106.911 77.7207L106.38 75.7394L107.394 75.4678L107.925 77.4492L106.911 77.7207ZM39.6946 93.6078L40.2255 95.5891L39.2121 95.8607L38.6812 93.8793L39.6946 93.6078ZM40.7564 97.5705L41.2873 99.5519L40.2739 99.8234L39.743 97.842L40.7564 97.5705ZM107.973 81.6834L107.442 79.7021L108.456 79.4305L108.987 81.4119L107.973 81.6834ZM41.8182 101.533L42.3491 103.515L41.3357 103.786L40.8048 101.805L41.8182 101.533ZM109.035 85.6461L108.504 83.6648L109.517 83.3932L110.048 85.3746L109.035 85.6461ZM42.88 105.496L43.4109 107.477L42.3975 107.749L41.8666 105.767L42.88 105.496ZM110.097 89.6088L109.566 87.6275L110.579 87.3559L111.11 89.3373L110.097 89.6088ZM43.9418 109.459L44.4727 111.44L43.4593 111.712L42.9284 109.73L43.9418 109.459ZM111.159 93.5716L110.628 91.5902L111.641 91.3187L112.172 93.3L111.159 93.5716ZM45.0036 113.421L45.5345 115.403L44.5211 115.674L43.9902 113.693L45.0036 113.421ZM112.22 97.5343L111.689 95.5529L112.703 95.2814L113.234 97.2627L112.22 97.5343ZM46.0654 117.384L46.5963 119.365L45.5829 119.637L45.052 117.656L46.0654 117.384ZM113.282 101.497L112.751 99.5156L113.765 99.2441L114.296 101.225L113.282 101.497ZM47.1272 121.347L47.3926 122.337C47.4829 122.674 47.5936 123 47.7231 123.314L46.7533 123.714C46.6066 123.359 46.4813 122.99 46.3792 122.609L46.1138 121.618L47.1272 121.347ZM114.079 104.469L113.813 103.478L114.826 103.207L115.092 104.197C115.194 104.578 115.27 104.96 115.32 105.341L114.28 105.48C114.236 105.143 114.169 104.806 114.079 104.469ZM48.7487 125.092C49.1703 125.641 49.6602 126.128 50.2025 126.544L49.5644 127.376C48.9502 126.906 48.3949 126.354 47.9166 125.731L48.7487 125.092ZM113.748 109.517C114.01 108.886 114.191 108.219 114.282 107.533L115.322 107.67C115.219 108.449 115.014 109.204 114.717 109.919L113.748 109.517ZM51.9823 127.571C52.6132 127.833 53.2798 128.014 53.9661 128.104L53.8287 129.145C53.0503 129.042 52.2947 128.837 51.5801 128.54L51.9823 127.571ZM111.269 112.75C111.818 112.329 112.305 111.839 112.721 111.296L113.553 111.934C113.083 112.549 112.531 113.104 111.908 113.582L111.269 112.75ZM56.0193 128.103C56.3555 128.059 56.693 127.992 57.0299 127.901L58.02 127.636L58.2915 128.65L57.3014 128.915C56.9206 129.017 56.5386 129.093 56.1575 129.143L56.0193 128.103ZM108.514 114.106C108.851 114.016 109.177 113.905 109.491 113.776L109.891 114.746C109.536 114.892 109.167 115.018 108.786 115.12L107.796 115.385L107.524 114.371L108.514 114.106ZM60.0001 127.106L61.9803 126.575L62.2519 127.588L60.2717 128.119L60.0001 127.106ZM63.9605 126.044L65.9407 125.514L66.2122 126.527L64.232 127.058L63.9605 126.044ZM67.9208 124.983L69.901 124.453L70.1726 125.466L68.1924 125.997L67.9208 124.983ZM71.8812 123.922L73.8614 123.391L74.1329 124.405L72.1527 124.935L71.8812 123.922ZM75.8415 122.861L77.8217 122.33L78.0933 123.344L76.1131 123.874L75.8415 122.861ZM79.8019 121.8L81.7821 121.269L82.0536 122.283L80.0734 122.813L79.8019 121.8ZM83.7622 120.739L85.7424 120.208L86.014 121.221L84.0338 121.752L83.7622 120.739ZM87.7226 119.677L89.7028 119.147L89.9743 120.16L87.9941 120.691L87.7226 119.677ZM91.683 118.616L93.6631 118.086L93.9347 119.099L91.9545 119.63L91.683 118.616ZM95.6433 117.555L97.6235 117.024L97.895 118.038L95.9149 118.568L95.6433 117.555ZM99.6037 116.494L101.584 115.963L101.855 116.977L99.8752 117.507L99.6037 116.494ZM103.564 115.433L105.544 114.902L105.816 115.915L103.836 116.446L103.564 115.433Z" fill="#2FC6F6"/>
	<g filter="url(#filter0_d_1040_64106)">
		<path d="M46.429 28.5824C46.429 23.9469 50.1868 20.1891 54.8223 20.1891H99.7359C102.193 20.1891 104.527 21.266 106.122 23.1356L116.814 35.6714C118.11 37.1905 118.822 39.1217 118.822 41.1183V110.418C118.822 115.053 115.064 118.811 110.428 118.811H54.8223C50.1868 118.811 46.429 115.053 46.429 110.418V28.5824Z" fill="white"/>
		<path d="M46.9535 28.5824C46.9535 24.2366 50.4765 20.7137 54.8223 20.7137H99.7359C102.04 20.7137 104.228 21.7232 105.723 23.476L116.415 36.0119C117.63 37.436 118.297 39.2465 118.297 41.1183V110.418C118.297 114.763 114.774 118.286 110.428 118.286H54.8223C50.4765 118.286 46.9535 114.763 46.9535 110.418V28.5824Z" stroke="#2FC6F6" stroke-width="1.04917"/>
	</g>
	<path opacity="0.5" d="M56.7708 45.8359C56.7708 44.677 57.5732 43.7375 58.5631 43.7375H97.9943C98.9842 43.7375 99.7866 44.677 99.7866 45.8359C99.7866 46.9948 98.9842 47.9342 97.9943 47.9342H58.5631C57.5732 47.9342 56.7708 46.9948 56.7708 45.8359Z" fill="#2FC6F6"/>
	<path opacity="0.5" d="M56.7708 56.3276C56.7708 55.1687 57.5732 54.2292 58.5631 54.2292H97.9943C98.9842 54.2292 99.7866 55.1687 99.7866 56.3276C99.7866 57.4865 98.9842 58.4259 97.9943 58.4259H58.5631C57.5732 58.4259 56.7708 57.4865 56.7708 56.3276Z" fill="#2FC6F6"/>
	<path opacity="0.5" d="M56.7708 66.8195C56.7708 65.6606 57.5821 64.7212 58.583 64.7212H74.8927C75.8936 64.7212 76.7049 65.6606 76.7049 66.8195C76.7049 67.9784 75.8936 68.9179 74.8927 68.9179H58.583C57.5821 68.9179 56.7708 67.9784 56.7708 66.8195Z" fill="#2FC6F6"/>
	<path opacity="0.5" d="M56.7708 83.6059C56.7708 82.447 57.5732 81.5076 58.5631 81.5076H97.9943C98.9842 81.5076 99.7866 82.447 99.7866 83.6059C99.7866 84.7648 98.9842 85.7042 97.9943 85.7042H58.5631C57.5732 85.7042 56.7708 84.7648 56.7708 83.6059Z" fill="#2FC6F6"/>
	<path opacity="0.5" d="M56.7708 94.0978C56.7708 92.939 57.5657 91.9995 58.5463 91.9995H78.0769C79.0575 91.9995 79.8524 92.939 79.8524 94.0978C79.8524 95.2567 79.0575 96.1962 78.0769 96.1962H58.5463C57.5657 96.1962 56.7708 95.2567 56.7708 94.0978Z" fill="#2FC6F6"/>
	<path d="M102.431 36.4258V21.7374C102.431 21.7374 103.672 22.1634 104.606 23.156C105.539 24.1485 116.094 36.1783 116.594 36.9504C117.095 37.7224 117.36 38.5241 117.36 38.5241H104.529C103.37 38.5241 102.431 37.5847 102.431 36.4258Z" fill="#E5F9FF"/>
	<defs>
		<filter id="filter0_d_1040_64106" x="34.3216" y="10.4633" width="96.6074" height="122.837" filterUnits="userSpaceOnUse" color-interpolation-filters="sRGB">
			<feFlood flood-opacity="0" result="BackgroundImageFix"/>
			<feColorMatrix in="SourceAlpha" type="matrix" values="0 0 0 0 0 0 0 0 0 0 0 0 0 0 0 0 0 0 127 0" result="hardAlpha"/>
			<feOffset dy="2.38161"/>
			<feGaussianBlur stdDeviation="6.0537"/>
			<feComposite in2="hardAlpha" operator="out"/>
			<feColorMatrix type="matrix" values="0 0 0 0 0.392157 0 0 0 0 0.427451 0 0 0 0 0.482353 0 0 0 0.16 0"/>
			<feBlend mode="normal" in2="BackgroundImageFix" result="effect1_dropShadow_1040_64106"/>
			<feBlend mode="normal" in="SourceGraphic" in2="effect1_dropShadow_1040_64106" result="shape"/>
		</filter>
	</defs>
</svg>
