<svg width="24" height="24" viewBox="0 0 24 24" fill="none" xmlns="http://www.w3.org/2000/svg">
<path fill-rule="evenodd" clip-rule="evenodd" d="M13.4001 4.19427L18.0604 6.88487C18.9267 7.38504 19.4604 8.3094 19.4604 9.30974V14.6909C19.4604 15.6913 18.9267 16.6156 18.0604 17.1158L13.4001 19.8064C12.5338 20.3066 11.4664 20.3066 10.6001 19.8064L5.93984 17.1158C5.07352 16.6156 4.53984 15.6913 4.53984 14.6909V9.30974C4.53984 8.3094 5.07352 7.38504 5.93984 6.88487L10.6001 4.19427C11.4664 3.6941 12.5338 3.6941 13.4001 4.19427ZM10.0001 3.15504C11.2377 2.44051 12.7625 2.44051 14.0001 3.15504L18.6604 5.84564C19.898 6.56017 20.6604 7.88068 20.6604 9.30974V14.6909C20.6604 16.12 19.898 17.4405 18.6604 18.155L14.0001 20.8456C12.7625 21.5602 11.2377 21.5602 10.0001 20.8456L5.33984 18.155C4.10224 17.4405 3.33984 16.12 3.33984 14.6909V9.30974C3.33984 7.88068 4.10224 6.56017 5.33984 5.84564L10.0001 3.15504ZM12.3979 7.61525L15.598 9.46281C15.8443 9.60502 15.996 9.86782 15.996 10.1522V13.8474C15.996 14.1318 15.8443 14.3946 15.598 14.5368L12.3979 16.3844C12.1516 16.5266 11.8481 16.5266 11.6018 16.3844L8.40175 14.5368C8.15544 14.3946 8.00371 14.1318 8.00371 13.8474V10.1522C8.00371 9.86782 8.15544 9.60502 8.40175 9.46281L11.6018 7.61525C11.8481 7.47304 12.1516 7.47304 12.3979 7.61525ZM11.0018 6.57602C11.6194 6.21945 12.3803 6.21945 12.9979 6.57602L16.198 8.42358C16.8156 8.78015 17.196 9.43911 17.196 10.1522V13.8474C17.196 14.5605 16.8156 15.2195 16.198 15.576L12.9979 17.4236C12.3803 17.7801 11.6194 17.7801 11.0018 17.4236L7.80175 15.576C7.18416 15.2195 6.80371 14.5605 6.80371 13.8474V10.1522C6.80371 9.43911 7.18416 8.78015 7.80175 8.42358L11.0018 6.57602Z" fill="#FAA72C"/>
</svg>
