<svg width="24" height="24" viewBox="0 0 24 24" fill="none" xmlns="http://www.w3.org/2000/svg">
<path fill-rule="evenodd" clip-rule="evenodd" d="M15.3132 8.70975L14.8973 8.64632L12.7835 4.1511C12.469 3.48219 11.5309 3.48219 11.2164 4.1511L9.10266 8.64632L4.38813 9.36535C3.64616 9.47852 3.4277 10.3743 3.9008 10.8583L7.3292 14.3659L7.10943 15.7107L4.99131 17.5306C4.73784 17.744 4.7054 18.1226 4.91884 18.376C5.13229 18.6295 5.5108 18.6619 5.76427 18.4485L18.6532 7.42127C18.9067 7.20782 18.9392 6.82931 18.7257 6.57584C18.5123 6.32237 18.1338 6.28992 17.8803 6.50337L15.3132 8.70975ZM12 5.30472L10.0751 9.39826C9.97584 9.60942 9.77786 9.75722 9.5472 9.7924L5.18698 10.4574L8.364 13.7078C8.5195 13.8669 8.59012 14.0904 8.55424 14.31L8.52239 14.5049L14.1716 9.68394C14.0663 9.61413 13.9802 9.51606 13.9248 9.39826L12 5.30472Z" fill="#A7A7A7"/>
<path d="M6.56135 19.0647L7.97129 17.8774L7.81026 18.8629L11.6618 16.7376C11.8723 16.6215 12.1276 16.6215 12.3381 16.7376L16.1897 18.8629L15.4457 14.31C15.4098 14.0904 15.4804 13.8669 15.6359 13.7078L18.8129 10.4574L17.094 10.1952L18.3145 9.1675L19.6118 9.36535C20.3538 9.47852 20.5722 10.3743 20.0991 10.8583L16.6707 14.3659L17.4812 19.3256C17.5884 19.982 16.9042 20.6277 16.2098 20.2446L12 17.9216L7.79009 20.2446C7.09572 20.6277 6.41147 19.982 6.51873 19.3256L6.56135 19.0647Z" fill="#A7A7A7"/>
</svg>
