<svg width="24" height="24" viewBox="0 0 24 24" fill="none" xmlns="http://www.w3.org/2000/svg">
<path d="M12.8975 11.9658C12.6632 12.1996 12.284 12.1998 12.0498 11.9658C11.8158 11.7316 11.8158 11.3515 12.0498 11.1172L17.2041 5.96289C17.3203 5.84672 17.4727 5.78906 17.625 5.78809C17.4937 5.73261 17.3497 5.70123 17.1982 5.70117L14.6953 5.70117C14.3639 5.70117 14.0957 5.43293 14.0957 5.10156C14.0957 4.77019 14.3639 4.50195 14.6953 4.50195L17.1982 4.50195C18.4683 4.50218 19.498 5.53164 19.498 6.80176V9.55567C19.498 9.88704 19.2288 10.1562 18.8975 10.1563C18.5663 10.1561 18.2979 9.88691 18.2979 9.55567V6.80176C18.2979 6.6652 18.272 6.53476 18.2266 6.41406C18.22 6.55813 18.1628 6.70041 18.0527 6.81055L12.8975 11.9658Z" fill="#333333"/>
<path d="M7.40137 19.4971C5.80012 19.4967 4.50206 18.199 4.50195 16.5977L4.50195 7.40137C4.50206 5.80006 5.80012 4.50232 7.40137 4.50195L10.7158 4.50195C11.0472 4.50195 11.3164 4.77019 11.3164 5.10156C11.3164 5.43293 11.0472 5.70117 10.7158 5.70117L7.40137 5.70117C6.46286 5.70154 5.70128 6.4628 5.70117 7.40137L5.70117 16.5977C5.70128 17.5362 6.46286 18.2975 7.40137 18.2979L16.5977 18.2979C17.5364 18.2977 18.2977 17.5364 18.2979 16.5977V13.7031C18.2981 13.3721 18.5665 13.1038 18.8975 13.1035C19.2287 13.1035 19.4968 13.372 19.4971 13.7031V16.5977C19.497 18.1991 18.1991 19.497 16.5977 19.4971L7.40137 19.4971Z" fill="#333333"/>
</svg>
