<svg width="24" height="24" viewBox="0 0 24 24" fill="none" xmlns="http://www.w3.org/2000/svg">
<path d="M14.1611 9.83496C14.4923 9.83522 14.7617 10.1034 14.7617 10.4346C14.7617 11.1779 14.4711 11.8932 13.9512 12.4219C13.4309 12.9507 12.7225 13.2498 11.9824 13.25C11.2423 13.25 10.5341 12.9506 10.0137 12.4219C9.49355 11.8932 9.20312 11.1781 9.20312 10.4346C9.20312 10.1032 9.47136 9.83496 9.80273 9.83496C10.1339 9.83522 10.4023 10.1034 10.4023 10.4346C10.4023 10.8661 10.5718 11.2779 10.8691 11.5801C11.1661 11.8817 11.5669 12.0498 11.9824 12.0498C12.3978 12.0496 12.7989 11.8817 13.0957 11.5801C13.3928 11.2779 13.5615 10.8659 13.5615 10.4346C13.5615 10.1033 13.8299 9.83515 14.1611 9.83496Z" fill="#333333"/>
<path fill-rule="evenodd" clip-rule="evenodd" d="M15.8936 3.96387C16.3487 3.96401 16.7835 4.15782 17.0869 4.49707L18.7129 6.31543C18.975 6.60866 19.12 6.9885 19.1201 7.38184V17.0791C19.1201 17.6217 18.9029 18.1414 18.5176 18.5234C18.1323 18.9053 17.6099 19.119 17.0674 19.1191H6.89746C6.35485 19.1191 5.83264 18.9052 5.44727 18.5234C5.06181 18.1413 4.84375 17.6218 4.84375 17.0791V7.38184C4.84382 6.98839 4.98966 6.6087 5.25195 6.31543L6.87793 4.49707C7.18145 4.15785 7.61609 3.96387 8.07129 3.96387H15.8936ZM6.04395 17.0791C6.04395 17.3 6.13281 17.513 6.29199 17.6709C6.45152 17.8289 6.66963 17.9189 6.89746 17.9189H17.0674C17.2951 17.9188 17.5134 17.8289 17.6729 17.6709C17.8319 17.513 17.9209 17.2999 17.9209 17.0791V7.71289H6.04395V17.0791ZM8.07129 5.16309C7.95757 5.16309 7.84834 5.21218 7.77246 5.29688L6.68457 6.51367H17.2803L16.1924 5.29688C16.1166 5.21215 16.0072 5.16323 15.8936 5.16309H8.07129Z" fill="#333333"/>
</svg>
