<svg width="24" height="24" viewBox="0 0 24 24" fill="none" xmlns="http://www.w3.org/2000/svg">
<path fill-rule="evenodd" clip-rule="evenodd" d="M13.3875 4.82909C13.0922 4.68851 12.7143 4.72115 12.4403 4.98534L6.7264 10.4941C6.3327 10.8741 6.3325 11.5166 6.7264 11.8965L12.4403 17.4053C12.7143 17.6693 13.0923 17.7012 13.3875 17.5605C13.6778 17.4222 13.8807 17.124 13.8807 16.7705V13.8633C16.5828 14.0971 18.2343 16.1843 19.4149 17.3877C20.0417 18.0265 21.0235 17.4173 20.8543 16.6074L20.6561 15.6367C20.4186 14.5155 20.0354 13.0021 19.2694 11.6367C18.2817 9.87646 16.6381 8.32813 13.8807 8.08593V5.61913C13.8807 5.2656 13.6778 4.96746 13.3875 4.82909ZM12.6805 8.65624C12.6805 8.98747 12.9489 9.25567 13.2801 9.25585C13.3396 9.25585 13.3338 9.25517 13.3563 9.25585C15.8987 9.33328 17.3362 10.6424 18.2235 12.2236C18.8621 13.3619 19.203 14.6218 19.4325 15.665C18.1932 14.3809 16.2411 12.642 13.3807 12.6416C13.3454 12.6416 13.3125 12.6416 13.2801 12.6416C12.949 12.6418 12.6807 12.9101 12.6805 13.2412V15.9687L7.72835 11.1943L12.6805 6.41991V8.65624Z" fill="#15C674"/>
<path d="M9.28987 5.32714C9.05989 5.08869 8.68075 5.08162 8.44222 5.31151L3.05062 10.5088C2.66545 10.8806 2.66539 11.5091 3.05062 11.8809L8.44222 17.0781C8.68073 17.308 9.0599 17.3009 9.28987 17.0625C9.51983 16.8239 9.51279 16.4448 9.27425 16.2148L4.06917 11.1943L9.27425 6.1748C9.51278 5.94482 9.5198 5.5657 9.28987 5.32714Z" fill="#15C674"/>
</svg>
