<svg width="20" height="21" viewBox="0 0 20 21" fill="none" xmlns="http://www.w3.org/2000/svg">
<path fill-rule="evenodd" clip-rule="evenodd" d="M13.5379 5.85316C12.2568 5.77934 11.0172 6.49197 10.6667 7.44482C10.565 7.72142 10.3008 7.91009 9.99992 7.91009C9.7074 7.91009 9.44801 7.73145 9.34072 7.46464C8.94832 6.48875 7.69006 5.78101 6.42869 5.85396C5.82503 5.88887 5.27369 6.10387 4.85941 6.51194C4.44882 6.91638 4.1159 7.56668 4.04829 8.57885C3.95893 9.91668 4.57676 11.2316 5.6778 12.5005C6.77614 13.7662 8.2935 14.9124 9.83896 15.8879C9.9285 15.9445 10.046 15.9438 10.1392 15.88C11.5904 14.8862 13.1141 13.7394 14.2455 12.472C15.3828 11.1978 16.0398 9.8964 15.9518 8.57885C15.8844 7.56981 15.5477 6.9201 15.1311 6.5147C14.7098 6.10478 14.1489 5.88837 13.5379 5.85316ZM16.1074 5.51131C16.8133 6.19811 17.2624 7.1941 17.3487 8.48554C17.4732 10.3504 16.5331 12.0114 15.2899 13.4042C14.0407 14.8037 12.4003 16.0284 10.9302 17.0351C10.3817 17.4107 9.65962 17.4303 9.09165 17.0718C7.4944 16.0636 5.84741 14.8321 4.6204 13.418C3.39608 12.0071 2.52753 10.3401 2.6514 8.48554C2.73746 7.19714 3.17908 6.20198 3.87696 5.51455C4.57114 4.83077 5.46218 4.50752 6.34786 4.4563C7.66373 4.3802 9.09171 4.90754 9.98714 5.90364C10.8669 4.90175 12.3031 4.37969 13.6184 4.45548C14.5079 4.50674 15.4062 4.82902 16.1074 5.51131Z" fill="#A7A7A7"/>
</svg>
