<svg width="24" height="24" viewBox="0 0 24 24" fill="none" xmlns="http://www.w3.org/2000/svg">
<path d="M17.2778 4.70703C18.7628 4.70703 19.9668 5.91104 19.9668 7.39602V16.6076C19.9667 18.0925 18.7627 19.2966 17.2778 19.2966H6.72219C5.23728 19.2966 4.03331 18.0925 4.0332 16.6076V7.39602C4.0332 5.91104 5.23721 4.70703 6.72219 4.70703H17.2778ZM10.8028 12.8849C10.5634 12.6483 10.1951 12.6204 9.92564 12.8003L9.81672 12.8907L8.57968 14.1404L8.00299 13.6823L7.88434 13.6065C7.59523 13.4596 7.23332 13.5315 7.02367 13.7951C6.81431 14.0588 6.82635 14.4268 7.03437 14.6753L7.13551 14.7744L8.20235 15.6215C8.4809 15.8426 8.88196 15.8189 9.13207 15.5661L10.8087 13.871L10.8972 13.7611C11.074 13.4896 11.0421 13.1216 10.8028 12.8849ZM13.0153 13.6288C12.6304 13.6288 12.3181 13.9412 12.318 14.3261C12.318 14.7111 12.6303 15.0234 13.0153 15.0234H16.5008L16.6408 15.0088C16.9584 14.9438 17.1981 14.663 17.1981 14.3261C17.198 13.9893 16.9584 13.7084 16.6408 13.6434L16.5008 13.6288H13.0153ZM10.8028 8.42882C10.5634 8.19222 10.1951 8.16441 9.92564 8.34422L9.81672 8.43466L8.57968 9.68433L8.00299 9.22628L7.88434 9.15043C7.59523 9.00356 7.23332 9.07545 7.02367 9.33909C6.81431 9.60275 6.82635 9.97077 7.03437 10.2192L7.13551 10.3184L8.20235 11.1655C8.4809 11.3866 8.88196 11.3629 9.13207 11.11L10.8087 9.41495L10.8972 9.30506C11.074 9.0336 11.0421 8.66559 10.8028 8.42882ZM13.0153 9.14362C12.6304 9.14362 12.3181 9.45598 12.318 9.84091C12.318 10.2259 12.6303 10.5382 13.0153 10.5382H16.5008L16.6408 10.5236C16.9584 10.4586 17.1981 10.1778 17.1981 9.84091C17.198 9.5041 16.9584 9.2232 16.6408 9.15821L16.5008 9.14362H13.0153Z" fill="#15C674"/>
</svg>
