<svg width="24" height="24" viewBox="0 0 24 24" fill="none" xmlns="http://www.w3.org/2000/svg">
<path d="M6.19962 14.3197C6.7519 14.3197 7.19961 14.7674 7.19961 15.3197V16.4994C7.19975 16.6648 7.33399 16.799 7.49941 16.7992H10.5297V15.8382L10.5355 15.7591C10.5905 15.403 11.0126 15.2269 11.3041 15.4398L11.3646 15.4906L13.3265 17.4525L13.389 17.5287C13.4966 17.6916 13.4963 17.905 13.389 18.0677L13.3265 18.1449L11.3519 20.1185L11.3373 20.1292L11.2767 20.1742L11.2601 20.1869L11.2416 20.1956C11.0084 20.3159 10.726 20.2256 10.598 20.0101L10.5531 19.9095L10.5472 19.8919L10.5326 19.7992L10.5297 19.7796V18.7992H7.49941C6.22943 18.799 5.19976 17.7694 5.19962 16.4994V15.3197C5.19962 14.7675 5.64742 14.3198 6.19962 14.3197ZM17.5296 10.6098C17.6926 10.5021 17.9059 10.5025 18.0687 10.6098L18.1458 10.6723L20.1195 12.6469L20.1302 12.6615L20.1751 12.722L20.1878 12.7386L20.1966 12.7572C20.3166 12.9904 20.2266 13.2729 20.0111 13.4008L19.9105 13.4457L19.8929 13.4515L19.8001 13.4662L19.7806 13.4691H18.7992V16.4994C18.799 17.7695 17.7695 18.7992 16.4994 18.7992H15.3177C14.7657 18.7989 14.3179 18.3512 14.3177 17.7992C14.3178 17.2471 14.7657 16.7994 15.3177 16.7992H16.4994C16.665 16.7992 16.799 16.6649 16.7992 16.4994V13.4691H15.8392L15.7601 13.4633C15.404 13.4083 15.2279 12.9862 15.4408 12.6947L15.4916 12.6342L17.4535 10.6723L17.5296 10.6098ZM8.78554 5.20451C9.2899 5.25561 9.68397 5.68178 9.68397 6.19962C9.68375 6.71726 9.28975 7.14364 8.78554 7.19473L8.68398 7.19961H7.49941C7.33397 7.19982 7.19972 7.33395 7.19961 7.49942V10.5297H8.18105L8.20058 10.5326L8.29336 10.5473L8.31093 10.5531L8.41152 10.598C8.62692 10.7261 8.71726 11.0085 8.59706 11.2416L8.58828 11.2601L8.57558 11.2767L8.53066 11.3373L8.51992 11.3519L6.54629 13.3265L6.46915 13.389C6.30644 13.4963 6.09303 13.4965 5.93009 13.389L5.85392 13.3265L3.89201 11.3646L3.84123 11.3041C3.62836 11.0126 3.80447 10.5905 4.16056 10.5355L4.23967 10.5297H5.19962V7.49942C5.19973 6.22938 6.2294 5.19983 7.49941 5.19962H8.68398L8.78554 5.20451ZM12.6947 3.84025C12.9862 3.62739 13.4083 3.80349 13.4633 4.15959L13.4691 4.23869V5.19962H16.4994C17.7696 5.19962 18.7991 6.22926 18.7992 7.49942V8.683C18.7989 9.23508 18.3513 9.683 17.7992 9.683C17.2473 9.68269 16.7994 9.23489 16.7992 8.683V7.49942C16.7991 7.33382 16.665 7.19961 16.4994 7.19961H13.4691V8.18008L13.4662 8.19961L13.4515 8.29238L13.4457 8.30996L13.4008 8.41054C13.2728 8.62604 12.9904 8.71631 12.7572 8.59609L12.7386 8.5873L12.722 8.57461L12.6615 8.52969L12.6468 8.51894L10.6722 6.54532L10.6097 6.46817C10.5025 6.30543 10.5022 6.09206 10.6097 5.92911L10.6722 5.85294L12.6342 3.89104L12.6947 3.84025Z" fill="#828B95"/>
</svg>
