<svg width="24" height="24" viewBox="0 0 24 24" fill="none" xmlns="http://www.w3.org/2000/svg">
<path d="M11.6599 4.15524C11.8835 4.03489 12.1506 4.02678 12.3807 4.1318L12.493 4.1943L12.8933 4.45602C13.3927 4.77584 14.1662 5.25161 15.0252 5.71384C16.1857 6.33832 17.444 6.90404 18.3875 7.05856L18.5125 7.08981C18.7577 7.17124 18.9628 7.36723 19.0398 7.62985L19.0682 7.76657L19.1053 8.15426C19.4288 12.1368 17.7662 15.2113 16.0193 17.2881C15.1178 18.3598 14.1881 19.1733 13.4842 19.7187C13.1321 19.9914 12.8354 20.1983 12.6248 20.3379C12.5195 20.4076 12.4352 20.4609 12.3767 20.497C12.3475 20.5151 12.3244 20.5294 12.3084 20.539C12.3006 20.5437 12.2943 20.5471 12.2898 20.5498L12.282 20.5537L12.2373 20.5772L12.281 20.5547C12.1481 20.6318 11.9883 20.6432 11.8474 20.5879L11.7879 20.5595L11.7859 20.5586C11.7859 20.5586 11.7824 20.556 11.7801 20.5547C11.7754 20.552 11.7687 20.5486 11.7605 20.5439C11.7442 20.5346 11.7208 20.5214 11.6912 20.5039C11.6316 20.4686 11.5457 20.4168 11.4383 20.3486C11.2234 20.2122 10.9202 20.0092 10.5613 19.7412C9.84452 19.2059 8.89918 18.4056 7.98514 17.3437C6.15563 15.2183 4.43174 12.0185 4.96073 7.80661L4.98807 7.67868C5.07401 7.38985 5.31708 7.17382 5.61014 7.11813L6.10722 7.00876C8.58004 6.38795 10.9032 4.71947 11.5525 4.22458L11.6599 4.15524Z" fill="#15C674"/>
</svg>
