<svg width="24" height="24" viewBox="0 0 24 24" fill="none" xmlns="http://www.w3.org/2000/svg">
<path d="M10.8167 14.0538C11.4694 13.4011 12.5282 13.4011 13.1809 14.0538L15.0891 15.963C15.7417 16.6157 15.7418 17.6736 15.0891 18.3263L13.1809 20.2355C12.5282 20.8881 11.4694 20.888 10.8167 20.2355L8.90848 18.3263C8.25573 17.6735 8.25573 16.6157 8.90848 15.963L10.8167 14.0538Z" fill="#828B95"/>
<path d="M5.66727 8.90342C6.32 8.25072 7.37879 8.25072 8.03152 8.90342L9.93973 10.8126C10.5924 11.4653 10.5924 12.5231 9.93973 13.1759L8.03152 15.0851C7.37878 15.7378 6.32001 15.7378 5.66727 15.0851L3.75906 13.1759C3.10636 12.5231 3.10635 11.4653 3.75906 10.8126L5.66727 8.90342Z" fill="#828B95"/>
<path d="M15.968 8.9044C16.6208 8.25165 17.6786 8.25165 18.3313 8.9044L20.2405 10.8126C20.893 11.4652 20.8928 12.5232 20.2405 13.1759L18.3313 15.0851C17.6786 15.7376 16.6208 15.7376 15.968 15.0851L14.0589 13.1759C13.4065 12.5232 13.4064 11.4652 14.0589 10.8126L15.968 8.9044Z" fill="#828B95"/>
<path d="M10.8177 3.76475C11.4703 3.11222 12.5282 3.11233 13.1809 3.76475L15.0901 5.67393C15.7426 6.32665 15.7427 7.38454 15.0901 8.03721L13.1809 9.94639C12.5282 10.5986 11.4703 10.5987 10.8177 9.94639L8.90848 8.03721C8.25616 7.38458 8.25625 6.32661 8.90848 5.67393L10.8177 3.76475Z" fill="#828B95"/>
</svg>
