<svg width="24" height="24" viewBox="0 0 24 24" fill="none" xmlns="http://www.w3.org/2000/svg">
<path d="M9.6085 14.3115C9.6085 14.106 9.58869 12.9693 9.56749 11.7881C9.54661 10.6252 9.52454 9.42056 9.52452 9.11133C9.52452 7.8585 10.6332 6.83867 12.171 6.85645C13.0036 6.8661 13.6416 7.20906 14.0626 7.67969C14.4033 8.06071 14.6021 8.52703 14.6515 8.9502L14.6642 9.12793V16.5244C14.6641 17.5451 14.2388 18.435 13.4737 19.0479C12.7303 19.6433 11.7401 19.9218 10.6642 19.9219C8.34304 19.9219 6.60301 18.0964 6.60265 16.3125C6.60241 15.1367 6.60265 10.4093 6.60265 8.33984C6.60265 7.07259 7.04163 5.85914 7.98448 4.9668C8.92555 4.07633 10.2682 3.59961 11.9024 3.59961C13.5418 3.59968 14.9181 4.08952 15.8956 4.98535C16.8769 5.88466 17.3761 7.12193 17.3761 8.44727C17.3761 10.5958 17.3586 13.9421 17.3761 15.46C17.3823 16.0121 16.9399 16.4644 16.3878 16.4707C15.8356 16.4771 15.3824 16.0347 15.3761 15.4824C15.3585 13.9497 15.3761 10.5707 15.3761 8.44727C15.3761 7.63662 15.0793 6.95045 14.5441 6.45996C14.0051 5.96612 13.1449 5.59968 11.9024 5.59961C10.6547 5.59961 9.84654 5.95804 9.3585 6.41992C8.87244 6.88012 8.60265 7.53782 8.60265 8.33984C8.60265 10.4097 8.60241 15.137 8.60265 16.3125C8.6031 16.8801 9.33235 17.9219 10.6642 17.9219C11.4144 17.9218 11.9239 17.7265 12.2237 17.4863C12.5019 17.2634 12.6641 16.9547 12.6642 16.5244C12.6642 15.0795 12.6704 9.71071 12.6642 9.17871C12.6627 9.17243 12.6591 9.15944 12.6515 9.14062C12.6352 9.10023 12.6092 9.05392 12.5724 9.0127C12.5373 8.97351 12.4927 8.9389 12.4347 8.91211C12.3776 8.88582 12.287 8.85806 12.1476 8.85645C11.8167 8.85266 11.6582 8.95071 11.5958 9.00586C11.5263 9.06746 11.5245 9.11603 11.5245 9.11133C11.5245 9.3971 11.5453 10.574 11.5665 11.7529C11.5874 12.9146 11.6085 14.0822 11.6085 14.3115C11.6083 14.8636 11.1607 15.3115 10.6085 15.3115C10.0566 15.3113 9.60872 14.8635 9.6085 14.3115Z" fill="#15C674"/>
</svg>
