<svg width="24" height="24" viewBox="0 0 24 24" fill="none" xmlns="http://www.w3.org/2000/svg">
<path d="M16.7109 13.4697C17.0975 13.4697 17.4111 13.7833 17.4111 14.1699V15.4688H18.71C19.0964 15.4689 19.4092 15.7825 19.4092 16.1689C19.409 16.5553 19.0963 16.868 18.71 16.8682H16.7109C16.5254 16.8682 16.3471 16.7952 16.2158 16.6641C16.0846 16.5329 16.0108 16.3545 16.0107 16.1689V14.1699C16.0107 13.7833 16.3243 13.4697 16.7109 13.4697Z" fill="#15C674"/>
<path fill-rule="evenodd" clip-rule="evenodd" d="M16.7109 11.4697C19.306 11.4698 21.4092 13.5739 21.4092 16.1689C21.4091 18.7639 19.3059 20.8671 16.7109 20.8672C14.1159 20.8672 12.0118 18.764 12.0117 16.1689C12.0117 13.5738 14.1158 11.4697 16.7109 11.4697ZM16.7109 12.8701C14.889 12.8701 13.4121 14.347 13.4121 16.1689C13.4122 17.9908 14.8891 19.4678 16.7109 19.4678C18.5327 19.4677 20.0097 17.9907 20.0098 16.1689C20.0098 14.3471 18.5328 12.8702 16.7109 12.8701Z" fill="#15C674"/>
<path d="M8.34766 14.8721C8.72898 16.5579 9.4115 18.1669 10.3633 19.627C7.79466 19.0783 5.69477 17.2668 4.74609 14.8721H8.34766Z" fill="#15C674"/>
<path d="M10.0615 14.8721C10.0208 15.0821 9.98864 15.2953 9.96777 15.5117C9.90279 15.3001 9.84328 15.0868 9.78906 14.8721H10.0615Z" fill="#15C674"/>
<path d="M8.10352 10.5322C8.04303 11.0183 8.00572 11.5086 7.99512 12.002L8.00586 12.3389C8.02292 12.7187 8.05776 13.0964 8.10449 13.4717H4.33887C4.27231 13.1229 4.22838 12.766 4.20996 12.4023L4.2002 12.001C4.20021 11.4988 4.24916 11.008 4.33984 10.5322H8.10352Z" fill="#15C674"/>
<path d="M12.9531 10.5322C11.876 11.2516 11.017 12.2712 10.4951 13.4717H9.51465C9.44741 12.9862 9.40727 12.4956 9.39551 12.002C9.40725 11.5083 9.44747 11.0177 9.51465 10.5322H12.9531Z" fill="#15C674"/>
<path d="M10.3652 4.37305C9.41233 5.83412 8.72912 7.44454 8.34766 9.13184H4.74805C5.69677 6.73596 7.79532 4.9212 10.3652 4.37305Z" fill="#15C674"/>
<path d="M12 4.47656C13.0422 5.88172 13.7893 7.46335 14.21 9.13184H9.78906C10.21 7.46332 10.9578 5.88175 12 4.47656Z" fill="#15C674"/>
<path d="M13.6338 4.37305C16.2045 4.92098 18.3053 6.73514 19.2539 9.13184H15.6523C15.2708 7.44437 14.5868 5.83424 13.6338 4.37305Z" fill="#15C674"/>
</svg>
