<svg width="24" height="24" viewBox="0 0 24 24" fill="none" xmlns="http://www.w3.org/2000/svg">
<path d="M18.1172 16.5804C17.9614 17.0095 17.8291 17.5501 17.8291 18.1565C17.8292 18.8132 17.984 19.426 18.1562 19.9065H8.07031C7.73912 19.9064 7.39905 19.7573 7.13281 19.4534C6.86397 19.1464 6.70021 18.7122 6.7002 18.2434C6.70022 17.7747 6.86396 17.3404 7.13281 17.0335C7.39905 16.7296 7.73911 16.5805 8.07031 16.5804H18.1172Z" fill="#15C674"/>
<path d="M11.9902 8.38992C12.2707 8.38992 12.3861 8.48415 12.4658 8.58914C12.5787 8.73802 12.6784 9.01234 12.6699 9.36942C12.6614 9.72495 12.5481 10.0259 12.4102 10.2044C12.2973 10.3501 12.1773 10.4153 11.9902 10.4153C11.8145 10.4152 11.7139 10.3604 11.6309 10.2796C11.528 10.1792 11.4158 9.99564 11.3574 9.72781C11.2258 9.12315 11.4453 8.64679 11.6582 8.48856C11.6408 8.50147 11.6447 8.49655 11.6768 8.48074C11.7067 8.46602 11.7484 8.44881 11.7959 8.43289C11.8433 8.41705 11.8897 8.40503 11.9287 8.39774C11.9474 8.39427 11.9634 8.39206 11.9746 8.3909C11.9827 8.39009 11.9902 8.38992 11.9902 8.38992Z" fill="#15C674"/>
<path fill-rule="evenodd" clip-rule="evenodd" d="M16.501 4.09793C17.605 4.0983 18.4998 4.99376 18.5 6.09793V15.18H16.3369C16.1549 14.0175 15.5166 13.2413 14.6797 12.7796C13.8527 12.3235 12.8667 12.1878 12 12.1878C11.1333 12.1878 10.1473 12.3234 9.32031 12.7796C8.51097 13.2261 7.88557 13.9661 7.68066 15.0657L7.65723 15.2141C7.05031 15.315 6.49719 15.6347 6.08008 16.1106C5.82658 16.4 5.63159 16.7367 5.5 17.0989V6.09793C5.50033 4.99354 6.39581 4.09902 7.5 4.09891C10.5001 4.09867 13.5006 4.09701 16.501 4.09793ZM11.9902 6.98953C11.5845 6.98975 11.0843 7.1717 10.8242 7.36453L10.6836 7.47977C9.33718 8.68908 9.81344 11.6179 11.7881 11.8059L11.9902 11.8147C14.5641 11.8147 14.86 7.28626 12.252 7.00321L11.9902 6.98953Z" fill="#15C674"/>
<path d="M12 13.5882C12.7508 13.5882 13.4679 13.7102 14.0029 14.0052C14.4337 14.2428 14.7651 14.601 14.9102 15.18H9.08887C9.23383 14.601 9.56546 14.2428 9.99609 14.0052C10.5312 13.71 11.249 13.5882 12 13.5882Z" fill="#15C674"/>
</svg>
