<svg width="24" height="24" viewBox="0 0 24 24" fill="none" xmlns="http://www.w3.org/2000/svg">
<path d="M6.01734 10.9551C6.40509 10.964 6.71853 11.266 6.74878 11.6445L6.75074 11.7217C6.70261 13.937 8.52578 16.9434 11.99 16.9434C15.3607 16.9427 17.2335 14.0799 17.2517 11.9473L17.2478 11.7441V11.667C17.2678 11.2875 17.572 10.977 17.9597 10.958C18.3474 10.9395 18.6814 11.2189 18.738 11.5947L18.7459 11.6709L18.7507 11.9414C18.7325 14.5994 16.6062 18.0055 12.7459 18.4033V19.8154H14.3748C14.7886 19.8157 15.1247 20.1515 15.1248 20.5654C15.1248 20.9795 14.7887 21.3151 14.3748 21.3154H9.61792C9.20371 21.3154 8.86792 20.9796 8.86792 20.5654C8.86802 20.1513 9.20377 19.8154 9.61792 19.8154H11.2459V18.4043C7.24142 18.0017 5.19206 14.3811 5.25074 11.6885L5.2566 11.6123C5.30328 11.2351 5.62914 10.9466 6.01734 10.9551Z" fill="#828B95"/>
<path d="M12.1638 2.88672C13.9286 2.976 15.3327 4.43566 15.3328 6.22266V11.582L15.3279 11.7529C15.2385 13.5177 13.7789 14.9218 11.9919 14.9219L11.8201 14.917C10.1126 14.83 8.74244 13.4606 8.65601 11.7529L8.6521 11.582V6.22266C8.65218 4.3784 10.1478 2.88325 11.9919 2.88281L12.1638 2.88672Z" fill="#828B95"/>
</svg>
