<svg width="24" height="24" viewBox="0 0 24 24" fill="none" xmlns="http://www.w3.org/2000/svg">
<path fill-rule="evenodd" clip-rule="evenodd" d="M15.3877 9.89648C16.0387 9.89648 16.5475 10.4587 16.4824 11.1064L15.9619 16.291C15.8644 17.262 15.0471 18.001 14.0713 18.001H9.89844C8.91819 18.0007 8.0986 17.2553 8.00684 16.2793L7.52148 11.0996C7.46094 10.4544 7.96815 9.89655 8.61621 9.89648H15.3877ZM10.9072 12.0059C10.6436 12.0059 10.4297 12.2198 10.4297 12.4834V15.3848C10.4297 15.6484 10.6436 15.8623 10.9072 15.8623C11.1709 15.8623 11.3848 15.6484 11.3848 15.3848V12.4834C11.3848 12.2197 11.1709 12.0059 10.9072 12.0059ZM13.0996 12.0059C12.836 12.0059 12.6221 12.2198 12.6221 12.4834V15.3848C12.6221 15.6484 12.836 15.8623 13.0996 15.8623C13.3633 15.8623 13.5771 15.6484 13.5771 15.3848V12.4834C13.5771 12.2197 13.3633 12.0059 13.0996 12.0059Z" fill="#15C674"/>
<path fill-rule="evenodd" clip-rule="evenodd" d="M12.5498 5.99902L12.7031 6.00586C13.4119 6.06709 14.0171 6.54774 14.2363 7.22461L14.2773 7.37207L14.4482 8.10938H16.8936C17.1572 8.10938 17.3711 8.32325 17.3711 8.58691C17.3711 8.85058 17.1572 9.06445 16.8936 9.06445H7.10645C6.84289 9.06432 6.62891 8.8505 6.62891 8.58691C6.62891 8.32333 6.84289 8.10951 7.10645 8.10938H9.53613L9.68555 7.4043L9.72461 7.25391C9.95013 6.5142 10.6347 5.99916 11.4199 5.99902H12.5498ZM11.4199 6.95312C11.0335 6.95327 10.6993 7.22441 10.6191 7.60254L10.5273 8.03418H13.4502L13.3467 7.58789C13.2609 7.21675 12.9307 6.95322 12.5498 6.95312H11.4199Z" fill="#15C674"/>
</svg>
