<svg width="24" height="24" viewBox="0 0 24 24" fill="none" xmlns="http://www.w3.org/2000/svg">
<path d="M11.4999 4.40039C10.6162 4.40039 9.8999 5.11674 9.8999 6.00039V18.0004C9.8999 18.884 10.6162 19.6004 11.4999 19.6004H12.4999C13.3836 19.6004 14.0999 18.884 14.0999 18.0004V6.00039C14.0999 5.11674 13.3836 4.40039 12.4999 4.40039H11.4999Z" fill="#909090"/>
<path d="M5.9999 11.4004C5.11625 11.4004 4.3999 12.1167 4.3999 13.0004V18.0004C4.3999 18.884 5.11625 19.6004 5.9999 19.6004H6.9999C7.88356 19.6004 8.5999 18.884 8.5999 18.0004V13.0004C8.5999 12.1167 7.88356 11.4004 6.9999 11.4004H5.9999Z" fill="#909090"/>
<path d="M16.9999 9.40039C16.1162 9.40039 15.3999 10.1167 15.3999 11.0004V18.0004C15.3999 18.884 16.1162 19.6004 16.9999 19.6004H17.9999C18.8836 19.6004 19.5999 18.884 19.5999 18.0004V11.0004C19.5999 10.1167 18.8836 9.40039 17.9999 9.40039H16.9999Z" fill="#909090"/>
</svg>
