<svg width="24" height="24" viewBox="0 0 24 24" fill="none" xmlns="http://www.w3.org/2000/svg">
<path d="M20.3535 11.0192C20.4883 11.2399 20.6211 11.5339 20.6211 11.8873C20.621 12.2419 20.4856 12.535 20.3486 12.7545C20.2182 12.9636 20.0452 13.1664 19.9414 13.2965C17.8941 15.8627 15.307 17.9102 11.9248 17.8707C10.219 17.8508 8.38727 17.2483 7.18262 16.4684C5.75196 15.5421 4.52836 14.2376 3.53125 12.7916L3.48926 12.7204L3.48828 12.7194L3.4873 12.7174C3.4873 12.7174 3.48627 12.7144 3.48535 12.7125L3.47754 12.6959C3.47104 12.6825 3.46159 12.6638 3.45117 12.6413C3.43051 12.5965 3.40327 12.5336 3.375 12.4625C3.33124 12.3525 3.23926 12.1116 3.23926 11.8844C3.23926 11.6568 3.33114 11.4161 3.375 11.3063C3.40341 11.2352 3.43143 11.1722 3.45215 11.1276C3.46243 11.1054 3.47107 11.0872 3.47754 11.0739L3.48535 11.0573C3.48631 11.0553 3.48828 11.0524 3.48828 11.0524L3.48926 11.0504L3.49023 11.0495C3.50118 11.0278 3.51288 11.0062 3.52637 10.986C5.47712 8.06867 8.3523 5.80657 11.9307 5.89809C13.5705 5.85585 15.0388 6.31576 16.3477 7.10707C16.3498 7.10826 16.3528 7.1085 16.3555 7.11C16.3651 7.11549 16.378 7.12374 16.3945 7.13344C16.4278 7.15296 16.4752 7.1814 16.5342 7.2184C16.6521 7.29238 16.8183 7.40209 17.0215 7.54946C17.4281 7.84437 17.9841 8.29149 18.5947 8.90981C19.0728 9.39391 19.525 9.91939 19.9531 10.4733C20.0544 10.6043 20.2256 10.8097 20.3535 11.0192Z" fill="#15C674"/>
<path d="M17.2901 5.49604C17.5635 5.22267 18.007 5.22267 18.2803 5.49604C18.5536 5.76942 18.5537 6.21294 18.2803 6.48628L6.28033 18.4863C6.00699 18.7596 5.56347 18.7595 5.29009 18.4863C5.01673 18.2129 5.01673 17.7694 5.29009 17.496L9.42779 13.3574C9.17258 12.9255 9.02643 12.4217 9.02642 11.8837L9.03033 11.7343C9.10571 10.2501 10.2961 9.05966 11.7803 8.98432L11.9297 8.98139C12.4672 8.98153 12.9694 9.12955 13.4004 9.38471L17.2901 5.49604Z" fill="white"/>
<path d="M14.7823 11.4062C14.807 11.5585 14.8233 11.7147 14.8233 11.874L14.8194 12.0234C14.7413 13.5569 13.4728 14.7771 11.92 14.7773L11.7706 14.7734C11.6621 14.7679 11.5553 14.7553 11.4502 14.7382L14.7823 11.4062Z" fill="white"/>
<path d="M6.67085 16.125C6.83849 16.2483 7.00878 16.367 7.18256 16.4795C7.4006 16.6206 7.63981 16.7547 7.89448 16.8818L6.28022 18.4971C6.00696 18.7703 5.56338 18.7701 5.28999 18.4971C5.01662 18.2237 5.01662 17.7802 5.28999 17.5068L6.67085 16.125ZM17.29 5.50684C17.5634 5.23363 18.0069 5.23353 18.2802 5.50684C18.5532 5.78018 18.5533 6.22381 18.2802 6.49708L17.1318 7.64454C17.0934 7.61595 17.0575 7.58673 17.0214 7.56055C16.8185 7.41341 16.652 7.30348 16.5341 7.2295C16.4755 7.1927 16.4278 7.16405 16.3945 7.14454C16.3782 7.13502 16.365 7.12658 16.3554 7.1211C16.353 7.11973 16.3497 7.11913 16.3476 7.11817C16.2072 7.03327 16.065 6.95207 15.9208 6.87501L17.29 5.50684Z" fill="#15C674"/>
</svg>
