<svg width="24" height="24" viewBox="0 0 24 24" fill="none" xmlns="http://www.w3.org/2000/svg">
<path fill-rule="evenodd" clip-rule="evenodd" d="M13.7117 18.5474C13.8026 18.2391 14.0455 18.0027 14.345 17.886C14.4028 17.8634 14.4603 17.8401 14.5172 17.8159C14.8089 17.692 15.1425 17.6897 15.4207 17.8413L15.8893 18.0965C16.2025 18.2672 16.5883 18.2514 16.8662 18.0277C17.2937 17.6837 17.6832 17.2943 18.0273 16.8668C18.251 16.5889 18.2668 16.203 18.0961 15.8897L17.8408 15.4211C17.6893 15.1429 17.6915 14.8093 17.8154 14.5176C17.8396 14.4607 17.863 14.4033 17.8855 14.3455C18.0022 14.0459 18.2386 13.803 18.5469 13.7122L19.03 13.5698C19.3753 13.468 19.638 13.1798 19.675 12.8218C19.7332 12.2594 19.7309 11.7077 19.6737 11.1724C19.6358 10.8169 19.374 10.5321 19.0311 10.431L18.5297 10.2832C18.2247 10.1933 17.9898 9.95456 17.8719 9.65927C17.8512 9.60718 17.8297 9.55545 17.8076 9.50406C17.6818 9.21181 17.6789 8.87665 17.8311 8.59723L18.0808 8.13888C18.2517 7.82501 18.2355 7.43848 18.0111 7.16023C17.6637 6.72924 17.2708 6.33636 16.8398 5.98887C16.5616 5.76452 16.175 5.74826 15.8611 5.91923L15.403 6.16876C15.1236 6.32098 14.7884 6.3181 14.4961 6.19224C14.4446 6.17007 14.3928 6.14856 14.3406 6.12773C14.0453 6.00985 13.8066 5.77499 13.7167 5.47003L13.569 4.96877C13.4679 4.6259 13.183 4.36405 12.8276 4.32612C12.2922 4.269 11.7406 4.26666 11.1783 4.32482C10.8202 4.36186 10.5321 4.62456 10.4303 4.96985L10.2811 5.47588C10.1928 5.77568 9.96005 6.0077 9.67329 6.13203C9.63162 6.1501 9.59003 6.16874 9.54855 6.18792C9.2498 6.32607 8.90221 6.33527 8.61316 6.17782L8.21978 5.96355C7.8989 5.78877 7.50331 5.81062 7.2225 6.0444C6.79616 6.39933 6.39884 6.79669 6.04395 7.22305C5.81021 7.50387 5.78837 7.89943 5.96314 8.22028L6.17737 8.61358C6.33482 8.90264 6.32562 9.25023 6.18746 9.54899C6.16827 9.59048 6.14963 9.63208 6.13155 9.67377C6.00721 9.96052 5.7752 10.1932 5.47541 10.2816L4.9698 10.4306C4.62449 10.5324 4.36179 10.8206 4.32477 11.1786C4.26663 11.741 4.26902 12.2928 4.3262 12.8283C4.36416 13.1837 4.626 13.4685 4.96884 13.5695L5.46953 13.7171C5.7745 13.807 6.00936 14.0457 6.12723 14.341C6.14807 14.3932 6.16959 14.4451 6.19177 14.4966C6.31763 14.7889 6.32051 15.1241 6.16829 15.4035L5.91912 15.861C5.74815 16.1748 5.76441 16.5614 5.98874 16.8396C6.33631 17.2707 6.72929 17.6637 7.1604 18.0113C7.43865 18.2356 7.82517 18.2518 8.13903 18.0809L8.59672 17.8316C8.87614 17.6794 9.2113 17.6822 9.50355 17.808C9.55497 17.8302 9.60673 17.8517 9.65884 17.8724C9.95414 17.9903 10.1929 18.2252 10.2828 18.5302L10.4304 19.031C10.5315 19.3739 10.8163 19.6357 11.1717 19.6737C11.7072 19.7308 12.259 19.7332 12.8214 19.6751C13.1795 19.6381 13.4677 19.3753 13.5694 19.03L13.7117 18.5474ZM9.34858 11.4056C8.93155 13.3656 10.6346 15.0692 12.5951 14.6523C13.6234 14.4336 14.4321 13.6249 14.6508 12.5966C15.0679 10.636 13.3641 8.93284 11.404 9.35004C10.4772 9.54729 9.54579 10.4787 9.34858 11.4056Z" fill="#909090"/>
</svg>
