<svg width="24" height="24" viewBox="0 0 24 24" fill="none" xmlns="http://www.w3.org/2000/svg">
<path d="M10.9988 5.00331C11.4134 4.18173 12.5688 4.18097 12.9841 5.00233L15.7068 10.3871C15.7405 10.4539 15.8074 10.467 15.8542 10.4428L18.8767 8.88026C19.7969 8.40495 20.7075 9.30931 20.4578 10.1976C20.4404 10.2593 20.436 10.272 20.4343 10.2826L19.3621 17.3099C19.3478 17.4033 19.3201 17.5376 19.2468 17.6723C19.0113 18.1045 18.5593 18.386 18.0554 18.3861H6.01636C5.50843 18.3861 5.05317 18.1004 4.81909 17.6625C4.75043 17.5339 4.72313 17.4064 4.70874 17.3178L3.56714 10.2826C3.56547 10.2725 3.5624 10.2611 3.54565 10.2025C3.29128 9.31156 4.20413 8.40281 5.12573 8.88026L8.13745 10.4418C8.18437 10.466 8.25122 10.4529 8.28491 10.3861L10.9988 5.00331Z" fill="#828B95"/>
</svg>
