<svg width="24" height="24" viewBox="0 0 24 24" fill="none" xmlns="http://www.w3.org/2000/svg">
<path d="M6.14064 4.58309C6.59492 4.20354 7.21125 4.2302 7.67873 4.50887L7.76955 4.56845C7.81007 4.59675 7.84569 4.62691 7.87697 4.65536L7.95705 4.73348C8.59974 5.41569 9.09187 5.96726 9.47951 6.40243C9.77436 6.73344 10.0005 6.98752 10.1875 7.1827L10.3623 7.35848C10.3995 7.3943 10.457 7.4518 10.5127 7.52645L10.5674 7.60555C10.769 7.94054 10.8194 8.35209 10.667 8.71786L10.5899 8.87118C10.3445 9.27707 9.89621 9.86373 9.13869 10.3985L9.04689 10.4757C9.04252 10.4807 9.04064 10.485 9.03908 10.4874C9.00803 10.6141 9.01076 10.8049 9.08009 11.0655C9.14914 11.3249 9.27323 11.6189 9.43752 11.9249C9.76732 12.5391 10.2321 13.1481 10.6367 13.5528L10.7442 13.6602C11.1489 14.0649 11.7579 14.5297 12.3721 14.8595C12.6781 15.0237 12.9721 15.1478 13.2315 15.2169C13.4924 15.2863 13.6839 15.2901 13.8106 15.2589C13.8129 15.2572 13.8165 15.2543 13.8213 15.2501C13.8398 15.2339 13.865 15.2057 13.8985 15.1583L14.1016 14.8878C14.5093 14.3768 14.9294 14.0319 15.2647 13.8087L15.4258 13.7071C15.8161 13.4714 16.2804 13.498 16.6572 13.71L16.8125 13.8126C16.8273 13.8238 16.842 13.836 16.8555 13.8487L19.666 16.5059C19.6827 16.5218 19.6985 16.5389 19.7129 16.5567C20.0765 17.0086 20.1796 17.6684 19.8369 18.1729L19.7617 18.2716C19.0361 19.14 17.6507 20.1233 15.6465 20.087C13.6843 20.0513 11.2324 19.038 8.32521 16.1905C8.31362 16.1808 8.29998 16.1721 8.28908 16.1612L8.13478 16.0069C8.12426 15.9964 8.11588 15.9839 8.10646 15.9727C5.25876 13.0648 4.27122 10.6206 4.26662 8.6661C4.26234 6.79651 5.15596 5.4765 5.97755 4.72567L6.14064 4.58309Z" fill="#828B95"/>
<path d="M17.5537 5.62411C17.8661 5.31177 18.3721 5.31193 18.6846 5.62411C18.9969 5.93654 18.997 6.44257 18.6846 6.75497L17.0811 8.35848L18.6846 9.962L18.7393 10.0225C18.9958 10.3367 18.9775 10.7999 18.6846 11.0929C18.3917 11.3854 17.9284 11.4045 17.6143 11.1485L17.5537 11.0929L15.9502 9.48934L14.3496 11.0899L14.2891 11.1446C13.9749 11.4009 13.5117 11.3828 13.2188 11.0899C12.9262 10.7971 12.9072 10.3337 13.1631 10.0196L13.2188 9.95907L14.8194 8.35848L13.2188 6.7579C12.9066 6.44558 12.9067 5.93945 13.2188 5.62704C13.5312 5.31472 14.0372 5.31475 14.3496 5.62704L15.9502 7.22762L17.5537 5.62411Z" fill="#828B95"/>
</svg>
