<svg width="24" height="24" viewBox="0 0 24 24" fill="none" xmlns="http://www.w3.org/2000/svg">
<path fill-rule="evenodd" clip-rule="evenodd" d="M11.999 4.18359C15.6671 4.18359 18.6748 7.04846 18.6748 10.623C18.6748 12.6325 17.5985 14.7077 16.3887 16.4209C15.1673 18.1503 13.7512 19.5922 12.959 20.3477C12.42 20.8615 11.589 20.8755 11.0352 20.3721C10.2361 19.6451 8.81983 18.2587 7.60059 16.5449C6.3896 14.8427 5.32422 12.7502 5.32422 10.623C5.32424 7.04862 8.33112 4.18384 11.999 4.18359ZM12 8.54297C10.869 8.54297 9.95215 9.45987 9.95215 10.5908C9.95219 11.7217 10.8691 12.6387 12 12.6387C13.1309 12.6386 14.0478 11.7217 14.0479 10.5908C14.0479 9.4599 13.1309 8.54301 12 8.54297Z" fill="#828B95"/>
</svg>
