<svg width="24" height="24" viewBox="0 0 24 24" fill="none" xmlns="http://www.w3.org/2000/svg">
<path d="M8.61954 15.4472C8.60901 15.4366 8.6012 15.424 8.59178 15.4128C5.74397 12.5048 4.75608 10.061 4.75148 8.10649C4.74716 6.23683 5.64099 4.91717 6.4626 4.16632L6.62524 4.02302C7.07952 3.64347 7.69564 3.67041 8.16312 3.94908L8.25428 4.00845C8.2949 4.0368 8.3309 4.06672 8.36224 4.09522L8.44162 4.17328C9.08449 4.85566 9.57623 5.40735 9.96394 5.84261C10.2589 6.17374 10.4855 6.42753 10.6726 6.62276L10.8473 6.79882C10.8845 6.83464 10.9418 6.89159 10.9975 6.96625L11.0519 7.04582C11.2536 7.38082 11.3047 7.79221 11.1523 8.15803L11.0744 8.3119C10.829 8.71779 10.3812 9.30373 9.62371 9.83852L9.53135 9.91569C9.52684 9.92085 9.52509 9.92536 9.52349 9.9277C9.49243 10.0544 9.49594 10.2452 9.56534 10.5059C9.63441 10.7654 9.75837 11.0592 9.92273 11.3653C10.2526 11.9796 10.717 12.5886 11.1217 12.9934L11.2287 13.1004C11.6334 13.5051 12.2425 13.9695 12.8568 14.2994C13.1629 14.4637 13.4567 14.5877 13.7161 14.6567C13.9772 14.7262 14.1684 14.7305 14.2951 14.6993C14.2974 14.6977 14.3013 14.6951 14.3064 14.6907C14.325 14.6745 14.35 14.6459 14.3836 14.5984L14.5861 14.3281C14.9939 13.8171 15.4141 13.4724 15.7494 13.2491L15.9102 13.1477C16.3006 12.9117 16.7651 12.9384 17.1421 13.1505L17.2977 13.2532C17.3125 13.2644 17.3268 13.2765 17.3403 13.2892L20.151 15.9462C20.1677 15.9621 20.1835 15.9793 20.198 15.9972C20.5617 16.4491 20.6647 17.1091 20.3218 17.6136L20.2468 17.7121C19.5211 18.5805 18.1358 19.5641 16.1317 19.5277C14.1695 19.4922 11.7174 18.4786 8.80998 15.631C8.79838 15.6213 8.78514 15.6128 8.77422 15.6019L8.61954 15.4472Z" fill="#828B95"/>
</svg>
