<svg width="24" height="24" viewBox="0 0 24 24" fill="none" xmlns="http://www.w3.org/2000/svg">
<path d="M13.3471 4.90139C13.9776 4.26968 15.02 4.18491 15.6983 4.82771L15.7126 4.84111L19.1412 8.27642C19.8128 8.95146 19.7382 10.0205 19.0963 10.663C18.4534 11.3063 17.3837 11.3793 16.7107 10.7032L16.5614 10.5529L12.8172 15.4567L13.0832 15.7237C13.0896 15.7302 13.0961 15.7371 13.1023 15.7438C13.7286 16.4244 13.6399 17.4571 13.0153 18.0835C12.3899 18.7102 11.3576 18.7995 10.6775 18.1705C10.6709 18.1645 10.6647 18.1577 10.6584 18.1514L8.77804 16.2672L5.54737 19.4924C5.26042 19.7793 4.79513 19.7792 4.50816 19.4924C4.2212 19.2055 4.22128 18.7403 4.50816 18.4532L7.73979 15.2261L5.86233 13.3448L5.84798 13.3305C5.20865 12.6513 5.29309 11.6085 5.92262 10.9774C6.55305 10.3457 7.59642 10.261 8.27471 10.9037L8.28906 10.9171L8.55317 11.1822L13.4342 7.41712L13.2859 7.26784L13.2715 7.25444C12.6321 6.57523 12.7174 5.53241 13.3471 4.90139Z" fill="#15C674"/>
</svg>
