<svg width="24" height="24" viewBox="0 0 24 24" fill="none" xmlns="http://www.w3.org/2000/svg">
<path d="M11 18.2992C11 18.8515 11.4477 19.2992 12 19.2992C12.5523 19.2992 13 18.8515 13 18.2992V12.9994H18.3002C18.8525 12.9994 19.3002 12.5517 19.3002 11.9994C19.3002 11.4471 18.8525 10.9994 18.3002 10.9994H13V5.69922C13 5.14693 12.5523 4.69922 12 4.69922C11.4477 4.69922 11 5.14693 11 5.69922V10.9994H5.7002C5.14791 10.9994 4.7002 11.4471 4.7002 11.9994C4.7002 12.5517 5.14791 12.9994 5.7002 12.9994H11V18.2992Z" fill="#15C674"/>
</svg>
