<svg width="24" height="24" viewBox="0 0 24 24" fill="none" xmlns="http://www.w3.org/2000/svg">
<path d="M16.1433 14.862C16.3186 14.7175 16.5861 14.8061 16.6035 15.0326C16.635 15.4426 16.5854 15.8974 16.3506 16.3213L16.2685 16.4561C15.9328 16.9622 15.1867 17.8277 14.54 18.5508L13.9453 19.208C13.4164 19.786 12.4733 19.551 12.2578 18.8115L12.0243 18.0111C11.9592 17.7879 12.0565 17.5492 12.2593 17.4353L12.3056 17.4092L12.3174 17.4033C13.0458 16.981 13.6658 16.5853 14.4564 16.0931C14.4568 16.0929 14.4572 16.093 14.4575 16.0933C14.4578 16.0936 14.4582 16.0936 14.4586 16.0934L14.4697 16.0869C14.4854 16.0778 14.5015 16.0676 14.5166 16.0576L14.9756 15.7461C15.3956 15.4533 15.784 15.1584 16.1433 14.862Z" fill="#15C674"/>
<path d="M5.92869 15.0684C6.08944 14.7789 6.45447 14.6745 6.74412 14.835C6.77343 14.8512 6.80171 14.8695 6.82713 14.8896L8.79198 16.7568C8.8273 16.7901 8.85938 16.8284 8.8867 16.8711C9.06479 17.1501 8.98281 17.5207 8.70408 17.6992L8.61619 17.75C8.52066 17.7993 8.40375 17.846 8.29002 17.8867C8.12213 17.9468 7.9097 18.011 7.66795 18.0664C7.18793 18.1763 6.56135 18.2582 5.91112 18.1895C5.60387 18.1566 5.37186 17.8959 5.37498 17.5869C5.38979 16.2349 5.72579 15.4344 5.92869 15.0684Z" fill="#15C674"/>
<path fill-rule="evenodd" clip-rule="evenodd" d="M18.332 4.65723C18.392 4.66201 18.4506 4.67246 18.5068 4.6875C18.5629 4.70251 18.6174 4.72189 18.6689 4.74609C18.7418 4.7804 18.8075 4.82665 18.8691 4.87695C18.9125 4.91233 18.9525 4.95105 18.9892 4.99316C19.1223 5.14591 19.2123 5.33755 19.2324 5.54883L19.2363 5.65039C19.2339 6.01306 19.2266 6.37567 19.2099 6.73828C19.2049 6.84771 19.1965 6.95699 19.1894 7.06641C19.171 7.35128 19.1459 7.63607 19.1094 7.9209C19.0698 8.22917 19.0186 8.53749 18.9502 8.8457C18.8841 9.14335 18.8022 9.4407 18.7021 9.73828C18.6502 9.89252 18.5937 10.0469 18.5312 10.2012C18.4955 10.2895 18.4594 10.3785 18.4199 10.4668C17.9569 11.5016 17.2408 12.5131 16.1543 13.5244C15.5476 14.089 14.8256 14.6553 13.9658 15.2227L13.9541 15.2295C13.1414 15.7352 12.5341 16.1214 11.8154 16.5381L11.626 16.6445L11.0469 16.9707C10.7068 17.1568 10.2969 17.1255 9.99119 16.9082L9.86717 16.8027L6.85643 13.8154C6.57781 13.5389 6.47239 13.1041 6.6494 12.7178L6.75291 12.5029C6.80737 12.3954 6.86364 12.2924 6.92088 12.1934C7.05846 11.9562 7.20388 11.7411 7.35252 11.5371L7.56541 11.2539C7.89561 10.8243 8.21628 10.4402 8.54783 9.93066C9.08946 9.07934 9.69694 8.3381 10.3633 7.70117C12.181 5.96363 14.4412 5.00591 17.0264 4.73242C17.0562 4.72927 17.0863 4.72562 17.1162 4.72266C17.4802 4.68649 17.851 4.66379 18.2275 4.6543L18.332 4.65723ZM14.2324 8.23535C13.43 8.23535 12.7793 8.88607 12.7793 9.68848C12.7793 10.4909 13.43 11.1416 14.2324 11.1416C15.0347 11.1415 15.6855 10.4908 15.6855 9.68848C15.6855 8.88615 15.0347 8.23549 14.2324 8.23535Z" fill="#15C674"/>
<path d="M7.53709 7.50684C7.94988 7.27833 8.39222 7.22476 8.79384 7.25094C9.02675 7.26612 9.11304 7.54443 8.95856 7.71941C8.59872 8.12701 8.25765 8.56702 7.93651 9.04004L7.70409 9.39355C7.55459 9.62274 7.41149 9.81967 7.2617 10.0156L6.77244 10.6445C6.57381 10.903 6.36511 11.1881 6.16263 11.5173C6.03957 11.7173 5.80021 11.8185 5.57468 11.753L5.04686 11.5996C4.30737 11.3841 4.0723 10.441 4.65037 9.91211L5.3076 9.31738C6.03065 8.67075 6.89628 7.92461 7.40233 7.58887L7.53709 7.50684Z" fill="#15C674"/>
</svg>
