<svg width="24" height="24" viewBox="0 0 24 24" fill="none" xmlns="http://www.w3.org/2000/svg">
<path d="M19.5215 8.47584C19.7321 8.96628 19.8457 9.50191 19.8457 10.054V13.8753C19.8456 15.3374 19.0475 16.6835 17.7646 17.385L13.9346 19.4797C13.5898 19.6683 13.224 19.8023 12.8496 19.8821V12.4837L15.3291 10.9934V13.3879L15.3438 13.4954C15.4095 13.7339 15.6876 13.8659 15.9209 13.7385L16.6064 13.3635L16.6758 13.3206C16.806 13.2244 16.8913 13.0787 16.9131 12.9182L16.9189 12.8372V10.0383L19.5215 8.47584Z" fill="#15C674"/>
<path d="M11.1494 12.4827V19.8753C10.7859 19.7947 10.4308 19.663 10.0957 19.4797L6.26562 17.385C4.98276 16.6835 4.18464 15.3374 4.18457 13.8753V10.054C4.18457 9.50736 4.29628 8.97697 4.50293 8.49049L11.1494 12.4827Z" fill="#15C674"/>
<path d="M9.51855 6.50416L14.4932 9.51197L12 11.011L5.48828 7.09889C5.72128 6.88628 5.98174 6.69944 6.26562 6.5442L8.0127 5.58717L9.51855 6.50416Z" fill="#15C674"/>
<path d="M10.0957 4.44947C11.2916 3.79549 12.7387 3.79549 13.9346 4.44947L17.7646 6.5442C18.0437 6.69677 18.3004 6.88006 18.5303 7.08814L16.0439 8.58033L11.0439 5.55689L9.63281 4.70142L10.0957 4.44947Z" fill="#15C674"/>
</svg>
