<svg width="24" height="24" viewBox="0 0 24 24" fill="none" xmlns="http://www.w3.org/2000/svg">
<path d="M14.1357 3.4286C14.4013 3.24055 14.7707 3.25912 15.0176 3.49012C15.2997 3.75439 15.315 4.19724 15.0508 4.47938L14.6045 4.95399C15.1239 5.58424 15.3364 6.37592 15.3457 7.0204C15.7924 7.14341 16.2027 7.36194 16.5303 7.67567L17.6865 6.70497C17.9825 6.45628 18.4241 6.49497 18.6729 6.7909C18.9214 7.08684 18.8837 7.52854 18.5879 7.77723L17.2783 8.87587C17.7137 9.84154 18.0378 10.9279 18.1504 11.9979H19.9062L20.0479 12.0126C20.3667 12.078 20.6064 12.36 20.6064 12.6981C20.6064 13.0362 20.3666 13.3183 20.0479 13.3837L19.9062 13.3983H18.1748C18.0956 14.6855 17.763 15.8489 17.2402 16.8358L18.7793 18.3534C19.0544 18.6249 19.0576 19.0685 18.7861 19.3436C18.5147 19.6184 18.072 19.6214 17.7969 19.3505L16.4512 18.0224C15.3247 19.3876 13.7474 20.1981 11.999 20.1981C10.2504 20.1981 8.67235 19.3879 7.5459 18.0224L6.20117 19.3505C5.92604 19.6214 5.4833 19.6184 5.21191 19.3436C4.94042 19.0685 4.94364 18.6249 5.21875 18.3534L6.75684 16.8349C6.23448 15.8482 5.9034 14.6849 5.82422 13.3983H4.0918L3.9502 13.3837C3.6314 13.3183 3.39169 13.0362 3.3916 12.6981C3.3916 12.36 3.63136 12.078 3.9502 12.0126L4.0918 11.9979H5.85254C5.97402 10.9436 6.31958 9.87384 6.76855 8.91883L5.40918 7.77723C5.11336 7.52854 5.07566 7.08684 5.32422 6.7909C5.57293 6.49497 6.01458 6.45628 6.31055 6.70497L7.5166 7.71766C7.83244 7.40489 8.22615 7.18081 8.65723 7.04774C8.65237 6.38327 8.88685 5.57364 9.44043 4.93641L9.04395 4.43348C8.80533 4.12984 8.85779 3.69013 9.16113 3.45106C9.46477 3.21204 9.90533 3.26382 10.1445 3.56727L10.582 4.12489C10.9927 3.95752 11.4766 3.8583 12.042 3.85829C12.5976 3.85829 13.0699 3.95522 13.4688 4.11903L14.0283 3.52235L14.1357 3.4286Z" fill="#828B95"/>
</svg>
