<svg width="24" height="24" viewBox="0 0 24 24" fill="none" xmlns="http://www.w3.org/2000/svg">
<path d="M16.5 4C17.3284 4 18 4.67157 18 5.5V10.8809C18 11.3178 17.857 11.7429 17.5928 12.0908L17.2871 12.4932V18.5117C17.2868 19.3398 16.6153 20.0116 15.7871 20.0117H8.33301C7.50484 20.0116 6.83327 19.3399 6.83301 18.5117V12.4932L6.50391 12.123C6.17908 11.7571 6 11.2842 6 10.7949V5.5C6 4.67157 6.67157 4 7.5 4H16.5ZM10.0889 15.9678C9.75774 15.9679 9.48942 16.2363 9.48926 16.5674C9.48926 16.8987 9.75763 17.1678 10.0889 17.168H10.8896C11.2208 17.1677 11.4893 16.8986 11.4893 16.5674C11.4891 16.2363 11.2207 15.968 10.8896 15.9678H10.0889ZM13.1104 15.9678C12.7792 15.9679 12.5109 16.2363 12.5107 16.5674C12.5107 16.8987 12.7791 17.1678 13.1104 17.168H13.9111C14.2423 17.1677 14.5107 16.8986 14.5107 16.5674C14.5106 16.2363 14.2422 15.968 13.9111 15.9678H13.1104ZM10.0889 13.8633C9.75763 13.8634 9.48926 14.1326 9.48926 14.4639C9.48942 14.795 9.75773 15.0633 10.0889 15.0635H10.8896C11.2207 15.0632 11.4891 14.7949 11.4893 14.4639C11.4893 14.1327 11.2208 13.8635 10.8896 13.8633H10.0889ZM13.1104 13.8633C12.7791 13.8634 12.5107 14.1326 12.5107 14.4639C12.5109 14.795 12.7792 15.0633 13.1104 15.0635H13.9111C14.2422 15.0632 14.5106 14.7949 14.5107 14.4639C14.5107 14.1327 14.2423 13.8635 13.9111 13.8633H13.1104ZM14.9385 7.15918C14.7059 6.92317 14.3259 6.92082 14.0898 7.15332L11.5811 9.62402L10.3672 8.53711C10.1203 8.31609 9.74055 8.33709 9.51953 8.58398C9.29853 8.83088 9.31952 9.21063 9.56641 9.43164L11.2002 10.8936C11.4362 11.1048 11.7958 11.0963 12.0215 10.874L14.9316 8.00781C15.1677 7.77529 15.171 7.39527 14.9385 7.15918Z" fill="#15C674"/>
</svg>
