<svg width="26" height="24" viewBox="0 0 26 24" fill="none" xmlns="http://www.w3.org/2000/svg">
<path fill-rule="evenodd" clip-rule="evenodd" d="M19.3495 4.47751L19.7996 5.86684L21.237 6.23408C21.8776 6.39773 22.0884 7.1386 21.6177 7.5717L19.5222 9.49968C19.3001 9.70407 18.9756 9.78172 18.6739 9.70271L17.2416 9.32767L14.9451 11.4475C15.0095 11.6303 15.0443 11.8255 15.0443 12.0281C15.0443 13.0641 14.1345 13.9039 13.0122 13.9039C11.8899 13.9039 10.9801 13.0641 10.9801 12.0281C10.9801 10.9922 11.8899 10.1523 13.0122 10.1523C13.2749 10.1523 13.5259 10.1983 13.7563 10.2821L16.0005 8.21053L15.5718 6.88288C15.4807 6.60088 15.5647 6.29549 15.7905 6.08775L17.9074 4.14006C18.3716 3.71289 19.1618 3.89777 19.3495 4.47751Z" fill="#909090"/>
<path d="M9.36844 6.47946C10.5749 5.80433 11.9736 5.47993 13.3825 5.54844C13.8605 5.57168 14.2684 5.23285 14.2935 4.79163C14.3187 4.35042 13.9516 3.9739 13.4737 3.95066C11.7174 3.86525 9.97386 4.26964 8.46989 5.11123C6.96592 5.95282 5.77109 7.19266 5.04077 8.66952C4.31045 10.1464 4.07845 11.7919 4.37493 13.3921C4.67141 14.9924 5.48265 16.4732 6.70316 17.6421C7.92367 18.811 9.49697 19.6138 11.2184 19.9462C12.9399 20.2786 14.7299 20.1252 16.3557 19.5059C17.9814 18.8865 19.3676 17.83 20.3341 16.4736C21.3006 15.1173 21.8025 13.5239 21.7747 11.9006C21.7672 11.4589 21.3731 11.1064 20.8945 11.1134C20.4159 11.1204 20.034 11.4842 20.0416 11.9259C20.0639 13.2281 19.6612 14.5063 18.8859 15.5944C18.1106 16.6825 16.9986 17.53 15.6944 18.0269C14.3903 18.5237 12.9543 18.6468 11.5733 18.3801C10.1924 18.1135 8.93027 17.4694 7.95117 16.5317C6.97208 15.594 6.32129 14.4061 6.08346 13.1224C5.84562 11.8387 6.03173 10.5187 6.6176 9.33393C7.20346 8.14918 8.16196 7.15458 9.36844 6.47946Z" fill="#909090"/>
<path d="M11.0125 8.80634C11.719 8.43267 12.5316 8.26566 13.3431 8.32739C13.8201 8.36368 14.2387 8.03614 14.278 7.59581C14.3173 7.15547 13.9625 6.76909 13.4855 6.7328C12.3244 6.64447 11.1616 6.88343 10.1507 7.41809C9.13989 7.95275 8.32858 8.75795 7.82403 9.72729C7.31948 10.6966 7.14543 11.7845 7.32489 12.847C7.50435 13.9096 8.02887 14.8969 8.82913 15.6785C9.6294 16.46 10.6677 16.9991 11.8069 17.2243C12.9461 17.4496 14.1325 17.3505 15.2094 16.9401C16.2863 16.5297 17.2029 15.8273 17.8381 14.9259C18.4734 14.0244 18.7974 12.9662 18.7672 11.8911C18.7549 11.4495 18.3569 11.1007 17.8784 11.1121C17.4 11.1235 17.0221 11.4908 17.0345 11.9325C17.0555 12.6838 16.8291 13.4234 16.3851 14.0534C15.9412 14.6835 15.3006 15.1743 14.5479 15.4612C13.7953 15.748 12.9662 15.8173 12.17 15.6598C11.3738 15.5024 10.6481 15.1257 10.0888 14.5794C9.52954 14.0332 9.16296 13.3432 9.03754 12.6006C8.91212 11.8579 9.03376 11.0977 9.38638 10.4202C9.73901 9.74275 10.306 9.18001 11.0125 8.80634Z" fill="#909090"/>
</svg>
