<svg width="24" height="24" viewBox="0 0 24 24" fill="none" xmlns="http://www.w3.org/2000/svg">
<path fill-rule="evenodd" clip-rule="evenodd" d="M10.0229 5.45202C10.9146 3.95349 13.0844 3.9535 13.976 5.45202L19.73 15.122C20.7216 16.7885 19.5207 18.9004 17.5816 18.9004H6.41741C4.47826 18.9004 3.27739 16.7885 4.26898 15.122L10.0229 5.45202ZM11.9999 7.92846C11.5304 7.92846 11.1499 8.30902 11.1499 8.77846V12.8934C11.1499 13.3629 11.5304 13.7434 11.9999 13.7434C12.4693 13.7434 12.8499 13.3629 12.8499 12.8934V8.77846C12.8499 8.30902 12.4693 7.92846 11.9999 7.92846ZM11.0499 15.465C11.0499 14.9403 11.4752 14.515 11.9999 14.515C12.5245 14.515 12.9499 14.9403 12.9499 15.465V15.5347C12.9499 16.0594 12.5245 16.4847 11.9999 16.4847C11.4752 16.4847 11.0499 16.0594 11.0499 15.5347V15.465Z" fill="#15C674"/>
</svg>
