<svg width="24" height="24" viewBox="0 0 24 24" fill="none" xmlns="http://www.w3.org/2000/svg">
<path d="M17.3703 3.02734L8.36678 6.13711H17.3703V3.02734Z" fill="#828B95"/>
<path fill-rule="evenodd" clip-rule="evenodd" d="M16.71 7.38169C18.5324 7.38179 20.0098 8.86 20.0098 10.6825V16.6034C20.0097 18.4258 18.5323 19.9031 16.71 19.9032H7.6543C5.83191 19.9031 4.3546 18.4258 4.35449 16.6034V9.38169C4.3547 8.27729 5.25005 7.38169 6.35449 7.38169H16.71ZM15.7637 12.1258C14.9079 12.126 14.2141 12.8199 14.2139 13.6756C14.2139 14.5315 14.9078 15.2262 15.7637 15.2264C16.6197 15.2264 17.3145 14.5317 17.3145 13.6756C17.3142 12.8198 16.6196 12.1258 15.7637 12.1258Z" fill="#828B95"/>
</svg>
