<svg width="24" height="24" viewBox="0 0 24 24" fill="none" xmlns="http://www.w3.org/2000/svg">
<path d="M14.5476 3.53309C15.1029 3.70017 15.4176 4.28578 15.2505 4.84109L10.7599 19.7659C10.5928 20.3212 10.0072 20.6359 9.45185 20.4688C8.89654 20.3018 8.58182 19.7161 8.74891 19.1608L13.2396 4.23603C13.4066 3.68072 13.9923 3.366 14.5476 3.53309Z" fill="#15C674"/>
<path d="M8.18343 6.78404C8.62525 7.11541 8.7148 7.74222 8.38343 8.18404L5.521 12.0006L8.38343 15.8172C8.7148 16.259 8.62525 16.8858 8.18343 17.2172C7.7416 17.5486 7.1148 17.459 6.78343 17.0172L3.471 12.6006C3.20433 12.2451 3.20433 11.7562 3.471 11.4006L6.78343 6.98404C7.1148 6.54222 7.7416 6.45267 8.18343 6.78404Z" fill="#15C674"/>
<path d="M17.2166 6.98404C16.8852 6.54222 16.2584 6.45267 15.8166 6.78404C15.3747 7.11541 15.2852 7.74222 15.6166 8.18404L18.479 12.0006L15.6166 15.8172C15.2852 16.259 15.3747 16.8858 15.8166 17.2172C16.2584 17.5486 16.8852 17.459 17.2166 17.0172L20.529 12.6006C20.7957 12.2451 20.7957 11.7562 20.529 11.4006L17.2166 6.98404Z" fill="#15C674"/>
</svg>
