<svg width="24" height="24" viewBox="0 0 24 24" fill="none" xmlns="http://www.w3.org/2000/svg">
<path fill-rule="evenodd" clip-rule="evenodd" d="M6.25732 5.32031C5.15275 5.32031 4.25732 6.21574 4.25732 7.32031V15.8496H4.15361C3.76701 15.8496 3.45361 16.163 3.45361 16.5496C3.45361 16.9362 3.76701 17.2496 4.15361 17.2496L11.3438 17.2497V17.4163L9.16925 19.4607C8.88758 19.7255 8.87393 20.1685 9.13874 20.4502C9.40355 20.7318 9.84656 20.7455 10.1282 20.4807L12.0888 18.6374L13.9593 20.3964C14.2409 20.6612 14.6839 20.6476 14.9487 20.366C15.2136 20.0844 15.2 19.6414 14.9183 19.3765L12.7437 17.3316V17.2497L19.8685 17.2496C20.2551 17.2496 20.5685 16.9362 20.5685 16.5496C20.5685 16.163 20.2551 15.8496 19.8685 15.8496H19.7433V7.32031C19.7433 6.21574 18.8478 5.32031 17.7433 5.32031H6.25732ZM7.80293 8.39551C7.3611 8.39551 7.00293 8.75368 7.00293 9.19551V9.86016C7.00293 10.302 7.3611 10.6602 7.80293 10.6602H10.3465C10.7883 10.6602 11.1465 10.302 11.1465 9.86016V9.19551C11.1465 8.75368 10.7883 8.39551 10.3465 8.39551H7.80293ZM7.80293 11.5322C7.3611 11.5322 7.00293 11.8904 7.00293 12.3322V13.0369C7.00293 13.4787 7.3611 13.8369 7.80293 13.8369H10.3465C10.7883 13.8369 11.1465 13.4787 11.1465 13.0369V12.3322C11.1465 11.8904 10.7883 11.5322 10.3465 11.5322H7.80293ZM12.7759 11.042C12.7759 9.84573 13.7456 8.87598 14.9419 8.87598C16.1382 8.87598 17.1079 9.84573 17.1079 11.042C17.1079 12.2382 16.1382 13.208 14.9419 13.208C13.7456 13.208 12.7759 12.2382 12.7759 11.042Z" fill="#828B95"/>
</svg>
