<svg width="24" height="24" viewBox="0 0 24 24" fill="none" xmlns="http://www.w3.org/2000/svg">
<path d="M6.14064 4.58309C6.59492 4.20354 7.21125 4.2302 7.67873 4.50887L7.76955 4.56845C7.81007 4.59675 7.84569 4.62691 7.87697 4.65536L7.95705 4.73348C8.59974 5.41569 9.09187 5.96726 9.47951 6.40243C9.77436 6.73344 10.0005 6.98752 10.1875 7.1827L10.3623 7.35848C10.3995 7.3943 10.457 7.4518 10.5127 7.52645L10.5674 7.60555C10.769 7.94054 10.8194 8.35209 10.667 8.71786L10.5899 8.87118C10.3445 9.27707 9.89621 9.86373 9.13869 10.3985L9.04689 10.4757C9.04252 10.4807 9.04064 10.485 9.03908 10.4874C9.00803 10.6141 9.01076 10.8049 9.08009 11.0655C9.14914 11.3249 9.27323 11.6189 9.43752 11.9249C9.76732 12.5391 10.2321 13.1481 10.6367 13.5528L10.7442 13.6602C11.1489 14.0649 11.7579 14.5297 12.3721 14.8595C12.6781 15.0237 12.9721 15.1478 13.2315 15.2169C13.4924 15.2863 13.6839 15.2901 13.8106 15.2589C13.8129 15.2572 13.8165 15.2543 13.8213 15.2501C13.8398 15.2339 13.865 15.2057 13.8985 15.1583L14.1016 14.8878C14.5093 14.3768 14.9294 14.0319 15.2647 13.8087L15.4258 13.7071C15.8161 13.4714 16.2804 13.498 16.6572 13.71L16.8125 13.8126C16.8273 13.8238 16.842 13.836 16.8555 13.8487L19.666 16.5059C19.6827 16.5218 19.6985 16.5389 19.7129 16.5567C20.0765 17.0086 20.1796 17.6684 19.8369 18.1729L19.7617 18.2716C19.0361 19.14 17.6507 20.1233 15.6465 20.087C13.6843 20.0513 11.2324 19.038 8.32521 16.1905C8.31362 16.1808 8.29998 16.1721 8.28908 16.1612L8.13478 16.0069C8.12426 15.9964 8.11588 15.9839 8.10646 15.9727C5.25876 13.0648 4.27122 10.6206 4.26662 8.6661C4.26234 6.79651 5.15596 5.4765 5.97755 4.72567L6.14064 4.58309Z" fill="#828B95"/>
<path d="M16.3799 4.34286C16.8217 4.34286 17.1806 4.70089 17.1807 5.14266V7.1954H19.2354L19.3164 7.20028C19.7197 7.24117 20.0339 7.58119 20.0342 7.9952C20.0342 8.43702 19.6762 8.79597 19.2344 8.79598H17.1807V10.8477L17.1758 10.9298C17.1348 11.3332 16.7941 11.6485 16.3799 11.6485C15.9384 11.6483 15.5803 11.2902 15.5801 10.8487V8.79598H13.5293L13.4473 8.7911C12.4721 8.69199 12.5443 7.19592 13.5283 7.1954H15.5801V5.14169L15.585 5.06063C15.6259 4.65737 15.9659 4.34311 16.3799 4.34286Z" fill="#828B95"/>
</svg>
