<svg width="24" height="24" viewBox="0 0 24 24" fill="none" xmlns="http://www.w3.org/2000/svg">
<path d="M5.86631 5.62109C4.77092 5.62109 4.03662 6.74652 4.47786 7.74911L4.49873 7.79654C4.74102 8.34707 5.28569 8.70245 5.88718 8.70245H18.7922C19.3937 8.70245 19.9384 8.34707 20.1807 7.79654L20.2015 7.74911C20.6428 6.74652 19.9085 5.62109 18.8131 5.62109H5.86631Z" fill="#15C674"/>
<path d="M7.91427 11.0449C6.82758 11.0449 6.09335 12.154 6.51781 13.1544L6.53793 13.2018C6.77574 13.7623 7.32557 14.1263 7.93439 14.1263H16.7457C17.3545 14.1263 17.9044 13.7623 18.1422 13.2018L18.1623 13.1544C18.5868 12.154 17.8525 11.0449 16.7658 11.0449H7.91427Z" fill="#15C674"/>
<path d="M10.5334 16.3457C9.41856 16.3457 8.68456 17.508 9.16369 18.5146L9.18627 18.562C9.43777 19.0904 9.97079 19.4271 10.556 19.4271H14.1248C14.71 19.4271 15.243 19.0904 15.4945 18.562L15.5171 18.5146C15.9962 17.508 15.2622 16.3457 14.1474 16.3457H10.5334Z" fill="#15C674"/>
</svg>
