<svg width="24" height="24" viewBox="0 0 24 24" fill="none" xmlns="http://www.w3.org/2000/svg">
<path fill-rule="evenodd" clip-rule="evenodd" d="M12.8553 3.68392C12.3008 3.62747 11.7309 3.62536 11.1513 3.68266C10.6223 3.73497 10.2135 4.11579 10.0732 4.59164L9.87876 5.25133C9.85247 5.34051 9.77416 5.43167 9.64536 5.48189C9.45642 5.55557 9.26974 5.63949 9.08622 5.73253C8.96341 5.79479 8.84011 5.78883 8.75437 5.74212L8.20704 5.44399C7.76465 5.20302 7.19905 5.22869 6.78778 5.57365C6.34979 5.94101 5.94097 6.34987 5.57365 6.78789C5.22875 7.19916 5.2031 7.76471 5.44406 8.20707L5.74307 8.75601C5.78973 8.84167 5.79573 8.96486 5.73362 9.08763C5.64117 9.27038 5.55775 9.45626 5.4845 9.64438C5.4343 9.7733 5.34308 9.85169 5.25385 9.87799L4.59209 10.073C4.1162 10.2133 3.73537 10.6222 3.6831 11.1512C3.62582 11.7309 3.62798 12.3009 3.68449 12.8556C3.73822 13.3829 4.11902 13.7881 4.59174 13.9274L5.25617 14.1232C5.34701 14.15 5.43611 14.2288 5.4812 14.3535C5.55413 14.5553 5.63616 14.7527 5.72676 14.9452C5.78325 15.0653 5.77601 15.184 5.73066 15.2673L5.39978 15.8748C5.16403 16.3076 5.18131 16.8632 5.51597 17.2741C5.87727 17.7177 6.28316 18.1235 6.72683 18.4847C7.13771 18.8192 7.69322 18.8364 8.12595 18.6007L8.73362 18.2697C8.81688 18.2244 8.93564 18.2171 9.05565 18.2736C9.24804 18.3641 9.44527 18.446 9.64687 18.5189C9.77164 18.5639 9.85042 18.6531 9.87719 18.7439L10.0729 19.4078C10.2122 19.8806 10.6174 20.2614 11.1449 20.3151C11.6997 20.3715 12.2699 20.3736 12.8499 20.3162C13.3789 20.2639 13.7877 19.8831 13.9279 19.4072L14.1186 18.7602C14.1457 18.6684 14.2259 18.5783 14.3531 18.5337C14.5624 18.4603 14.767 18.3769 14.9664 18.2843C15.0866 18.2284 15.2049 18.2359 15.2878 18.2811L15.9032 18.6163C16.3352 18.8516 16.8901 18.8351 17.301 18.501C17.741 18.1433 18.1432 17.741 18.501 17.301C18.8351 16.8902 18.8517 16.3352 18.6163 15.9032L18.2821 15.2896C18.2369 15.2067 18.2295 15.0882 18.2855 14.9679C18.3787 14.7678 18.4625 14.5623 18.5364 14.3521C18.5811 14.225 18.6711 14.1448 18.7629 14.1178L19.4077 13.9277C19.8835 13.7875 20.2643 13.3788 20.3167 12.8498C20.3741 12.27 20.372 11.6999 20.3156 11.1451C20.262 10.6176 19.8812 10.2124 19.4084 10.073L18.7494 9.87878C18.6585 9.85198 18.5693 9.77309 18.5243 9.64817C18.4508 9.44432 18.368 9.24491 18.2765 9.05047C18.22 8.93043 18.2272 8.81163 18.2726 8.72836L18.6011 8.12531C18.8368 7.69257 18.8196 7.13704 18.485 6.72616C18.1239 6.28262 17.7182 5.87684 17.2748 5.51563C16.8639 5.18094 16.3082 5.16365 15.8754 5.39941L15.2726 5.72777C15.1893 5.77314 15.0705 5.78036 14.9504 5.72383C14.7558 5.63219 14.5562 5.54932 14.3522 5.47575C14.2273 5.43071 14.1484 5.34155 14.1216 5.25063L13.9273 4.59118C13.7879 4.11842 13.3827 3.73761 12.8553 3.68392ZM11.328 9.05051C13.5141 8.58522 15.4076 10.4781 14.9424 12.6647C14.7 13.8041 13.803 14.7012 12.6636 14.9435C10.4771 15.4085 8.58431 13.5152 9.04942 11.3292C9.15249 10.8448 9.4583 10.3253 9.89121 9.89237C10.3241 9.45944 10.8436 9.1536 11.328 9.05051Z" fill="#909090"/>
</svg>
