<svg width="24" height="24" viewBox="0 0 24 24" fill="none" xmlns="http://www.w3.org/2000/svg">
<path fill-rule="evenodd" clip-rule="evenodd" d="M10.243 5.01562C11.7214 5.14108 13.033 5.99715 13.7088 7.28125C14.023 7.20738 14.3455 7.1689 14.6697 7.16895L14.8865 7.1748C17.0247 7.28374 18.7383 8.99389 18.8719 11.1299C20.4518 11.7411 21.5143 13.2342 21.4988 14.9219C21.546 17.1353 19.7355 18.9401 17.4842 19H7.82108C7.81091 19 7.80083 18.9977 7.79081 18.9971C7.75349 18.9984 7.70853 19 7.66581 19C4.90038 19 2.64599 16.819 2.5076 14.0811L2.50077 13.8145C2.47917 11.761 3.71098 9.91192 5.60428 9.06348C5.74223 6.79882 7.61301 5 9.90799 5H9.91288L10.243 5.01562ZM8.82889 13.4365C8.72235 13.4081 8.61241 13.4716 8.58378 13.5781L8.09452 15.4072C8.06021 15.5362 8.1986 15.642 8.31424 15.5752L8.92557 15.2207L8.93631 15.2393L9.11796 15.4707C10.0664 16.582 11.644 16.9863 13.0447 16.5898L13.2215 16.5361C14.0312 16.2693 14.6241 15.799 15.0223 15.0918L15.1043 14.9375C15.2646 14.6165 15.1342 14.226 14.8133 14.0654C14.5324 13.9252 14.1981 14.0065 14.0115 14.2441L13.9412 14.3555C13.7261 14.7857 13.4201 15.0771 12.9178 15.2646L12.6902 15.3389C11.7264 15.6115 10.6956 15.3148 10.1062 14.627L10.0594 14.5664L10.6922 14.2012C10.8077 14.1343 10.7849 13.9615 10.656 13.9268L8.82889 13.4365ZM14.7469 10.7695C13.8 9.68815 12.2965 9.2404 11.0779 9.47949L10.8211 9.54102C9.78288 9.83975 9.07821 10.4458 8.67557 11.4121C8.53771 11.7433 8.69419 12.1245 9.02518 12.2627C9.35648 12.4005 9.73676 12.2433 9.87479 11.9121C10.1164 11.3322 10.4982 10.9874 11.1805 10.791L11.3406 10.7529C12.1042 10.6077 13.1289 10.8989 13.7644 11.6201L13.8601 11.7402L13.2537 12.0918C13.1384 12.1587 13.1611 12.3315 13.2898 12.3662L15.117 12.8555C15.2234 12.8839 15.3333 12.8211 15.3621 12.7148L15.8523 10.8857C15.8869 10.7568 15.7483 10.6504 15.6326 10.7168L14.9871 11.0889L14.9412 11.0107L14.7469 10.7695Z" fill="#828B95"/>
</svg>
