<svg width="24" height="24" viewBox="0 0 24 24" fill="none" xmlns="http://www.w3.org/2000/svg">
<path d="M5.03726 8.08825C4.79262 7.84361 4.38017 7.91662 4.2697 8.24448C3.52088 10.4669 4.06451 13.0621 5.88155 14.8791C7.63682 16.6344 10.1182 17.2013 12.2883 16.5628C12.6345 16.4609 13.016 16.5331 13.2712 16.7883L16.3808 19.8979C17.0838 20.6009 18.2235 20.6009 18.9264 19.8979L19.8594 18.965C20.5623 18.262 20.5623 17.1223 19.8594 16.4194L16.6855 13.2455C16.437 12.9971 16.3616 12.628 16.4521 12.2885C17.0202 10.1557 16.4393 7.74935 14.7253 6.03536C12.9594 4.26949 10.4586 3.70632 8.2793 4.36332C7.94217 4.46495 7.86117 4.88507 8.11015 5.13405L11.2449 8.26881C11.6354 8.65933 11.6354 9.2925 11.2449 9.68302L9.64557 11.2824C9.25505 11.6729 8.62188 11.6729 8.23136 11.2824L5.03726 8.08825Z" fill="#8E8E8E"/>
</svg>
