<svg width="24" height="24" viewBox="0 0 24 24" fill="none" xmlns="http://www.w3.org/2000/svg">
<path fill-rule="evenodd" clip-rule="evenodd" d="M13.0322 5.10156C12.5638 5.9431 12.2959 6.9119 12.2959 7.94336C12.296 11.1752 14.9165 13.7949 18.1484 13.7949C18.5371 13.7949 18.9167 13.7559 19.2842 13.6836V16.1172L19.2705 16.3945C19.1405 17.6699 18.1247 18.6831 16.8467 18.8125L16.5693 18.8271H7.32812L7.0498 18.8125C5.77214 18.6828 4.75596 17.6697 4.62598 16.3945L4.6123 16.1172V7.8125C4.6123 6.40937 5.68064 5.25422 7.0498 5.11523L7.32812 5.10156H13.0322ZM8.55957 13.5518C8.17314 13.5518 7.85944 13.8654 7.85938 14.252C7.85938 14.6386 8.1731 14.9521 8.55957 14.9521H13.1855L13.3271 14.9375C13.6458 14.8721 13.8857 14.5901 13.8857 14.252C13.8857 13.9138 13.6458 13.6318 13.3271 13.5664L13.1855 13.5518H8.55957ZM8.55566 10.0537C8.16906 10.0537 7.85547 10.3673 7.85547 10.7539C7.85547 11.1405 8.16906 11.4541 8.55566 11.4541H9.9502L10.0908 11.4395C10.4099 11.3743 10.6504 11.0923 10.6504 10.7539C10.6504 10.4156 10.4099 10.1336 10.0908 10.0684L9.9502 10.0537H8.55566Z" fill="#15C674"/>
<path d="M20.8721 5.69141C21.1331 5.49694 21.5035 5.50536 21.7559 5.73047C22.0442 5.98788 22.0689 6.43033 21.8115 6.71875L17.9248 11.0752C17.6686 11.3622 17.2282 11.389 16.9395 11.1348L14.4658 8.95605L14.3701 8.85254C14.1738 8.59285 14.18 8.22268 14.4033 7.96875C14.6269 7.71482 14.9938 7.66132 15.2764 7.82324L15.3916 7.90527L17.3428 9.62402L20.7676 5.78711L20.8721 5.69141Z" fill="#15C674"/>
</svg>
