<svg width="24" height="24" viewBox="0 0 24 24" fill="none" xmlns="http://www.w3.org/2000/svg">
<path d="M12.7578 5.1993C13.6618 4.75319 14.7702 5.40305 14.7705 6.45809V17.4718C14.7705 18.5218 13.6713 19.1734 12.7676 18.7364L12.5898 18.6339L8.41211 15.8311H5.87305C5.1485 15.8309 4.55134 15.2802 4.47949 14.5743L4.47266 14.4307V9.55672C4.47272 8.78348 5.10014 8.15663 5.87305 8.15633H8.41113L12.5801 5.30281L12.7578 5.1993Z" fill="#828B95"/>
<path d="M17.7627 6.10066C17.9786 5.8403 18.3436 5.77549 18.6309 5.92879L18.748 6.00789L19.0928 6.3077C20.7669 7.83986 21.7274 9.86384 21.7275 11.9991C21.7275 14.2769 20.6342 16.4285 18.748 17.9913C18.4504 18.2376 18.0093 18.196 17.7627 17.8985C17.5161 17.6008 17.5578 17.1598 17.8555 16.9132C19.46 15.5837 20.3281 13.8113 20.3281 11.9991C20.328 10.3001 19.565 8.63647 18.1475 7.33992L17.8555 7.08602L17.7559 6.98543C17.5516 6.73172 17.5469 6.36127 17.7627 6.10066Z" fill="#828B95"/>
<path d="M16.1113 8.25008C16.3272 7.98972 16.6923 7.92491 16.9795 8.0782L17.0967 8.15731L17.3154 8.34774C18.3803 9.32233 19.002 10.6195 19.002 11.9991L18.9932 12.2735C18.9167 13.55 18.3094 14.7408 17.3154 15.6505L17.0967 15.8409C16.799 16.0872 16.3579 16.0456 16.1113 15.7481C15.8647 15.4504 15.9064 15.0094 16.2041 14.7628L16.3701 14.6173C17.1243 13.9276 17.5433 13.0661 17.5957 12.1876L17.6016 11.9991C17.6016 11.0561 17.1781 10.1199 16.3701 9.38094L16.2041 9.23543L16.1045 9.13484C15.9003 8.88113 15.8956 8.51068 16.1113 8.25008Z" fill="#828B95"/>
</svg>
