<svg width="24" height="24" viewBox="0 0 24 24" fill="none" xmlns="http://www.w3.org/2000/svg">
<path fill-rule="evenodd" clip-rule="evenodd" d="M7.38094 7.20066C8.99344 5.58817 11.2402 5.95329 12.1265 6.81565C12.755 7.42721 13.561 8.23876 14.3747 9.05939C14.4258 9.11087 14.4768 9.16238 14.5279 9.21388C15.2868 9.9793 16.0423 10.7412 16.6419 11.3293C17.0362 11.716 17.6693 11.7099 18.056 11.3156C18.4428 10.9213 18.4366 10.2881 18.0423 9.90144C17.4531 9.32363 16.7071 8.57123 15.9441 7.80166C15.8944 7.75156 15.8447 7.70138 15.7949 7.65117C14.9845 6.83386 14.1651 6.00873 13.5212 5.38223C11.8627 3.76846 8.36428 3.3889 5.96673 5.78644C3.57589 8.17727 3.95464 11.6035 5.54747 13.1963C6.49751 14.1463 9.45258 17.0105 11.0004 18.5107C11.4141 18.9117 11.7273 19.2152 11.8747 19.3587C12.4463 19.9148 13.4374 20.2818 14.3967 20.364C15.387 20.4489 16.6017 20.2519 17.5196 19.3587C19.1858 17.7375 19.1192 15.1788 17.7039 13.8016C17.2069 13.318 15.7467 11.8987 14.367 10.5577C14.0176 10.2181 13.6733 9.88347 13.3512 9.57036C12.4009 8.64677 11.6428 7.90999 11.5112 7.78188C11.1754 7.45517 10.6345 7.17509 10.0343 7.0977C9.38926 7.01451 8.62631 7.16324 7.99053 7.78188C7.36878 8.38685 7.17727 9.13682 7.19276 9.75876C7.20042 10.0663 7.25803 10.3567 7.34723 10.608C7.42936 10.8393 7.56628 11.1162 7.78814 11.3321C8.06528 11.6018 11.7564 15.2782 12.1168 15.6385C12.5073 16.029 13.1404 16.029 13.531 15.6385C13.9215 15.248 13.9215 14.6148 13.531 14.2243C13.1904 13.8838 9.77635 10.4831 9.23664 9.95143C9.23519 9.94769 9.23363 9.94352 9.23199 9.9389C9.21257 9.8842 9.19448 9.80271 9.19214 9.70896C9.18764 9.52825 9.23898 9.35765 9.38527 9.21529C9.46266 9.13999 9.52852 9.10868 9.57992 9.09337C9.63541 9.07684 9.70124 9.07131 9.77854 9.08127C9.85775 9.09149 9.9385 9.11688 10.0094 9.15077C10.076 9.18259 10.1105 9.21056 10.1158 9.21488C10.1162 9.21519 10.1165 9.21545 10.1158 9.21488C10.2481 9.34352 11.0089 10.0828 11.9608 11.008C12.282 11.3202 12.625 11.6536 12.973 11.9919C14.353 13.3331 15.8127 14.7519 16.3092 15.235C16.881 15.7914 17.0211 17.0533 16.1249 17.9253C15.7616 18.2788 15.2051 18.426 14.5675 18.3713C13.8989 18.314 13.4056 18.0577 13.2695 17.9253C13.1165 17.7764 12.7954 17.4652 12.3733 17.0561C10.8196 15.5502 7.89843 12.7188 6.96169 11.7821C6.15931 10.9797 5.76171 8.81988 7.38094 7.20066Z" fill="#15C674"/>
</svg>
