<svg width="24" height="24" viewBox="0 0 24 24" fill="none" xmlns="http://www.w3.org/2000/svg">
<path d="M7.89896 4.38281C6.1206 4.38281 4.67896 5.82445 4.67896 7.60281V8.54071C4.67896 8.99983 4.9916 9.39997 5.4371 9.51102C6.06807 9.6683 6.67896 9.19099 6.67896 8.54071V7.60281C6.67896 6.92902 7.22517 6.38281 7.89896 6.38281H16.1527C16.8265 6.38281 17.3727 6.92903 17.3727 7.60281V9.43534L15.9892 9.43534C15.6963 9.43534 15.4343 9.61774 15.3327 9.89248C15.231 10.1672 15.3112 10.4762 15.5336 10.6668L18.0748 12.8449C18.3402 13.0725 18.7329 13.0692 18.9946 12.8373L21.4522 10.6592C21.6698 10.4663 21.7455 10.159 21.6424 9.88705C21.5392 9.61515 21.2787 9.43534 20.9879 9.43534L19.3727 9.43534V7.60281C19.3727 5.82445 17.9311 4.38281 16.1527 4.38281H7.89896Z" fill="#15C674"/>
<path d="M19.3727 15.5401C19.3727 15.081 19.0601 14.6809 18.6146 14.5698C17.9836 14.4125 17.3727 14.8898 17.3727 15.5401V16.4232C17.3727 17.097 16.8265 17.6432 16.1527 17.6432H7.89896C7.22517 17.6432 6.67896 17.097 6.67896 16.4232V14.6402L8.11376 14.6402C8.40669 14.6402 8.66865 14.4578 8.77028 14.1831C8.87191 13.9083 8.79173 13.5994 8.56931 13.4087L6.02819 11.2306C5.76271 11.0031 5.37002 11.0063 5.10834 11.2382L2.65078 13.4163C2.43314 13.6092 2.35743 13.9166 2.46058 14.1885C2.56373 14.4604 2.82426 14.6402 3.11507 14.6402L4.67896 14.6402V16.4232C4.67896 18.2016 6.1206 19.6432 7.89896 19.6432H16.1527C17.9311 19.6432 19.3727 18.2016 19.3727 16.4232V15.5401Z" fill="#15C674"/>
</svg>
