<svg width="24" height="24" viewBox="0 0 24 24" fill="none" xmlns="http://www.w3.org/2000/svg">
<path d="M5.51407 6.53209C5.93601 6.00222 6.63299 5.77647 7.29044 5.95299C7.59462 6.04131 7.96776 6.12946 8.25235 6.18834C8.32543 6.20124 8.38914 6.21257 8.44669 6.22252C8.52044 6.23528 8.58431 6.24666 8.64493 6.25768C9.02764 6.30677 9.28286 6.66016 9.23379 7.03307C9.18461 7.41567 8.83125 7.671 8.4584 7.62194C8.32109 7.60232 7.86741 7.57311 7.60684 7.63659C6.94663 7.92458 6.42437 8.93761 6.37344 9.33385C6.30898 9.83561 6.32233 10.7057 8.22989 11.8846C8.6755 12.16 9.74873 12.2781 10.1898 12.2635C11.047 12.235 12.1035 11.8046 12.8139 11.7108C13.3021 11.6463 13.4425 11.774 13.9848 12.1678C14.0055 12.1829 14.0258 12.1988 14.0463 12.2137C13.9587 12.2652 13.8801 12.3348 13.8197 12.4247C13.6043 12.7455 13.6894 13.1808 14.0102 13.3964L18.102 16.1434C17.9696 16.4575 17.7777 16.7245 17.5326 16.9432C17.5179 16.9319 17.5045 16.9184 17.4887 16.9081L13.6313 14.4032C13.3071 14.1929 12.874 14.2851 12.6635 14.6092C12.4532 14.9334 12.5456 15.3665 12.8695 15.577L16.4008 17.871C16.2169 18.1517 15.9783 18.3933 15.6947 18.5799C15.6519 18.5312 15.6038 18.4856 15.5463 18.4491L12.351 16.4237C12.0246 16.2168 11.5923 16.3134 11.3852 16.6395C11.1782 16.966 11.2745 17.3993 11.601 17.6063L14.017 19.1376C13.5008 19.6718 12.6937 20.0066 11.9428 20.0067C11.6779 20.0067 11.4127 19.9573 11.1674 19.869C11.0006 19.7905 8.17405 18.4463 6.62344 16.8173C5.48505 15.62 3.7871 13.1073 2.87442 11.7137C2.49191 11.1153 2.5211 10.3404 2.96231 9.78112L5.51407 6.53209Z" fill="#15C674"/>
<path d="M17.4008 13.9862C17.4996 14.0264 17.6006 14.0635 17.7065 14.0926C18.197 14.2275 18.7265 14.222 19.4213 14.163C19.4204 14.1676 19.4213 14.173 19.4203 14.1776C19.3415 14.5576 19.2042 14.8466 19.0219 15.076L17.4008 13.9862Z" fill="#15C674"/>
<path d="M17.2436 5.95885C17.7582 5.7064 18.2343 5.54209 18.8363 5.92077C19.1565 6.1245 19.2148 6.19244 19.5932 6.65807L19.7582 6.86217C20.3115 7.532 21.5153 9.49278 21.6322 9.89147L21.6615 9.97936L21.642 9.96959C21.7585 10.29 21.7781 10.5814 21.516 10.9891C21.2339 11.4262 19.5744 12.5621 19.1957 12.6981C18.9724 12.7855 18.8363 12.8241 18.6713 12.8241C18.5937 12.8241 18.5064 12.8142 18.3998 12.7948C18.0211 12.7462 17.6601 12.418 16.9125 11.9423L16.7475 11.8348C16.5145 11.6892 16.2231 11.4858 15.9125 11.2626C15.8751 11.2361 15.8358 11.2083 15.7953 11.1796C15.0792 10.6707 13.8837 9.83656 13.3598 9.93737C12.9811 10.015 12.8154 10.0835 12.5727 10.2001C12.4175 10.2776 12.2428 10.355 12.0004 10.4423L11.8549 10.5008L11.8461 10.5038C11.0896 10.785 10.1793 11.116 9.38614 10.8163C9.02689 10.6803 7.99828 10.4675 7.95938 9.61315C7.95938 9.42868 7.94637 9.03389 8.47598 8.67663C9.00577 8.31933 9.62002 8.06154 10.2436 7.63073C11.1271 7.09674 11.8105 6.74168 12.5678 6.50866C13.4755 6.23163 14.2632 6.43894 14.9369 6.68932L14.9691 6.70104C15.3284 6.83695 15.6418 6.81351 15.9428 6.84264C16.0884 6.85234 16.321 6.65791 16.5443 6.46373C16.5605 6.44976 16.577 6.4358 16.5932 6.42174C16.7909 6.25033 16.9924 6.07551 17.2436 5.95885Z" fill="#15C674"/>
</svg>
