<svg width="24" height="24" viewBox="0 0 24 24" fill="none" xmlns="http://www.w3.org/2000/svg">
<path fill-rule="evenodd" clip-rule="evenodd" d="M12.0918 6.19405C15.4304 6.10717 17.9913 8.17646 20.0244 10.7302L20.2168 10.9704C20.2878 11.0614 20.3616 11.1611 20.4248 11.2624C20.5567 11.4738 20.6826 11.749 20.6826 12.0778C20.6825 12.4054 20.5585 12.6807 20.4287 12.8933C20.3666 12.9948 20.2944 13.0954 20.2246 13.1872L20.0352 13.4304C18.0134 16.0463 15.4271 18.0535 12.0918 17.9665C8.78127 18.0522 6.07088 16.0964 4.14551 13.4597L3.77051 12.9226L3.74023 12.8698L3.73926 12.8689L3.72852 12.8474C3.72228 12.8346 3.71417 12.8163 3.7041 12.7946C3.68394 12.7512 3.65643 12.6897 3.62891 12.6208C3.58458 12.5098 3.50008 12.2855 3.5 12.0798C3.50008 11.8743 3.58467 11.65 3.62891 11.5388C3.65633 11.4698 3.683 11.4085 3.70312 11.3649C3.71317 11.3432 3.72226 11.3251 3.72852 11.3122L3.73633 11.2966L3.73828 11.2917L3.73926 11.2897L3.77441 11.2302C5.71998 8.40879 8.55588 6.10276 12.0918 6.19405ZM12.0781 9.5583C10.6856 9.5583 9.55675 10.6873 9.55664 12.0798C9.55664 13.4724 10.6855 14.6013 12.0781 14.6013C13.4705 14.6011 14.5996 13.4722 14.5996 12.0798C14.5995 10.6874 13.4705 9.5585 12.0781 9.5583Z" fill="#15C674"/>
</svg>
