<svg width="32" height="32" viewBox="0 0 32 32" fill="none" xmlns="http://www.w3.org/2000/svg">
<path d="M14.3536 12.6923C15.658 12.5843 16.8428 13.125 17.8741 14.0966L18.4708 14.6933C18.8353 15.0578 18.8352 15.6482 18.4708 16.0126C18.1063 16.3771 17.516 16.3771 17.1515 16.0126L16.5841 15.4462C15.8263 14.7358 15.1421 14.5002 14.5079 14.5527C13.8413 14.6079 13.0302 14.9974 12.0792 15.9482L9.37317 18.6621C7.94169 20.0936 7.82476 21.9867 9.08899 23.2509C9.74641 23.9083 10.4786 24.1238 11.2042 24.0449C11.9576 23.9628 12.7798 23.551 13.5196 22.8115L15.5021 20.8222C15.8659 20.4571 16.4573 20.4564 16.8224 20.8203C17.1873 21.1841 17.188 21.7745 16.8243 22.1396L14.84 24.1308C13.8705 25.1002 12.6724 25.7625 11.4054 25.9003C10.1103 26.0411 8.82169 25.6223 7.76965 24.5703C5.61488 22.4155 6.06459 19.3303 8.05188 17.3427L10.7579 14.6289C11.8773 13.5095 13.079 12.798 14.3536 12.6923ZM17.2413 8.09663C19.2269 6.1111 22.3073 5.65187 24.464 7.80854C25.5157 8.86046 25.9348 10.1499 25.795 11.4453C25.6584 12.7115 24.9984 13.9095 24.0304 14.8789L21.2609 17.708C20.1452 18.8236 18.9413 19.4729 17.6554 19.4726C16.3695 19.4723 15.2271 18.8226 14.2345 17.83C14.0002 17.5957 13.7915 17.3438 13.6095 17.079C13.3176 16.6544 13.4252 16.0732 13.8497 15.7812C14.2744 15.4893 14.8555 15.5969 15.1476 16.0214C15.2652 16.1926 15.4006 16.3565 15.5538 16.5097C16.3463 17.3022 17.0423 17.6061 17.6554 17.6064C18.2678 17.6065 19.0241 17.3039 19.9376 16.3915L22.7071 13.5624C23.4468 12.8228 23.8581 11.9996 23.9396 11.2451C24.018 10.5183 23.8012 9.78544 23.1437 9.12788C21.8826 7.86696 19.9995 7.98315 18.5665 9.41206L16.546 11.4912C16.1869 11.8608 15.5964 11.8697 15.2267 11.5107C14.857 11.1515 14.8479 10.5601 15.2071 10.1904L17.2413 8.09663Z" fill="#0075FF"/>
</svg>
