<svg width="26" height="26" viewBox="0 0 26 26" fill="none" xmlns="http://www.w3.org/2000/svg">
<g filter="url(#filter0_d_1621_131013)">
<g filter="url(#filter1_b_1621_131013)">
<path d="M15.8518 7.59223C15.8518 7.16268 16.2 6.81445 16.6296 6.81445H17.4073C17.8369 6.81445 18.1851 7.16268 18.1851 7.59223V16.407C18.1851 16.8366 17.8369 17.1848 17.4073 17.1848H16.6296C16.2 17.1848 15.8518 16.8366 15.8518 16.407V7.59223Z" fill="#FF7C78" fill-opacity="0.55"/>
<path d="M11.8335 10.184C11.8335 9.75447 12.1817 9.40625 12.6112 9.40625H13.389C13.8186 9.40625 14.1668 9.75447 14.1668 10.184V16.4062C14.1668 16.8358 13.8186 17.184 13.389 17.184H12.6112C12.1817 17.184 11.8335 16.8358 11.8335 16.4062V10.184Z" fill="#FF7C78" fill-opacity="0.55"/>
<path d="M7.8148 12.7778C7.8148 12.3482 8.16303 12 8.59258 12H9.37036C9.79991 12 10.1481 12.3482 10.1481 12.7778V16.4074C10.1481 16.837 9.79991 17.1852 9.37036 17.1852H8.59258C8.16303 17.1852 7.8148 16.837 7.8148 16.4074V12.7778Z" fill="#FF7C78" fill-opacity="0.55"/>
</g>
</g>
<defs>
<filter id="filter0_d_1621_131013" x="2.38419e-07" y="2.38419e-07" width="26" height="26" filterUnits="userSpaceOnUse" color-interpolation-filters="sRGB">
<feFlood flood-opacity="0" result="BackgroundImageFix"/>
<feColorMatrix in="SourceAlpha" type="matrix" values="0 0 0 0 0 0 0 0 0 0 0 0 0 0 0 0 0 0 127 0" result="hardAlpha"/>
<feOffset dy="1"/>
<feGaussianBlur stdDeviation="1.5"/>
<feComposite in2="hardAlpha" operator="out"/>
<feColorMatrix type="matrix" values="0 0 0 0 0 0 0 0 0 0 0 0 0 0 0 0 0 0 0.2 0"/>
<feBlend mode="normal" in2="BackgroundImageFix" result="effect1_dropShadow_1621_131013"/>
<feBlend mode="normal" in="SourceGraphic" in2="effect1_dropShadow_1621_131013" result="shape"/>
</filter>
<filter id="filter1_b_1621_131013" x="0.777778" y="-0.222222" width="24.4444" height="24.4444" filterUnits="userSpaceOnUse" color-interpolation-filters="sRGB">
<feFlood flood-opacity="0" result="BackgroundImageFix"/>
<feGaussianBlur in="BackgroundImageFix" stdDeviation="1.11111"/>
<feComposite in2="SourceAlpha" operator="in" result="effect1_backgroundBlur_1621_131013"/>
<feBlend mode="normal" in="SourceGraphic" in2="effect1_backgroundBlur_1621_131013" result="shape"/>
</filter>
</defs>
</svg>
