<svg width="18" height="18" viewBox="0 0 18 18" fill="none" xmlns="http://www.w3.org/2000/svg">
<g opacity="0.5">
<path fill-rule="evenodd" clip-rule="evenodd" d="M2.50801 4.20332C2.27077 4.44057 2.27077 4.82521 2.50801 5.06246L11.2812 13.8357C11.5184 14.0729 11.9031 14.0729 12.1403 13.8357C12.3776 13.5984 12.3776 13.2138 12.1403 12.9765L3.36715 4.20332C3.1299 3.96608 2.74525 3.96608 2.50801 4.20332ZM3.00075 11.2496V7.27542L8.47491 12.7496H4.50075C3.67232 12.7496 3.00075 12.078 3.00075 11.2496ZM12.0007 6.74959V11.1907L6.05961 5.24959H10.5007C11.3292 5.24959 12.0007 5.92116 12.0007 6.74959ZM15.7507 6.47081C15.7507 6.25128 15.5227 6.1061 15.3238 6.19899L12.9238 7.31989C12.8182 7.3692 12.7507 7.47518 12.7507 7.59171V10.5655C12.7507 10.6871 12.8242 10.7967 12.9367 10.843L15.3367 11.8294C15.5341 11.9106 15.7507 11.7654 15.7507 11.5519V6.47081Z" fill="#F1F4F6"/>
</g>
</svg>
