<svg width="12" height="13" viewBox="0 0 12 13" fill="none" xmlns="http://www.w3.org/2000/svg">
<path opacity="0.5" fill-rule="evenodd" clip-rule="evenodd" d="M3.98982 6.0172V5.82153L6.14577 7.94428C6.08334 7.95016 6.02006 7.95317 5.95607 7.95317C4.87014 7.95317 3.98982 7.08641 3.98982 6.0172ZM5.9638 9.16748C6.43004 9.16748 6.83995 9.1034 7.19949 8.98178L8.29436 10.0598C7.83766 10.292 7.31614 10.4589 6.73122 10.5372L6.73066 11.4707L7.04301 11.4709C7.4018 11.4709 7.69267 11.7573 7.69267 12.1106C7.69267 12.4639 7.4018 12.7502 7.04301 12.7502H4.86925C4.51045 12.7502 4.21959 12.4639 4.21959 12.1106C4.21959 11.7573 4.51045 11.4709 4.86925 11.4709L5.1806 11.4707L5.18054 10.5366C2.5742 10.1901 1.24185 8.12582 1.2621 6.27963C1.2664 5.88761 1.59265 5.57325 1.9908 5.57743C2.36241 5.58143 2.66531 5.86152 2.70055 6.21757L2.70393 6.29496C2.69989 6.66321 2.9088 7.37035 3.29436 7.92031C3.84791 8.70991 4.69889 9.16748 5.9638 9.16748ZM9.25777 6.02819L10.532 7.28281C10.6175 6.94395 10.6571 6.6028 10.65 6.27222C10.6415 5.88027 10.312 5.56927 9.91388 5.5776C9.61406 5.58387 9.36088 5.76948 9.25777 6.02819ZM4.20543 1.05365L7.92231 4.7133V1.93597C7.92231 0.866762 7.042 0 5.95607 0C5.19292 0 4.53132 0.428073 4.20543 1.05365ZM1.15377 0.539462C0.914889 0.774663 0.914889 1.156 1.15377 1.3912L10.4304 10.525C10.6693 10.7602 11.0566 10.7602 11.2954 10.525C11.5343 10.2898 11.5343 9.90844 11.2954 9.67324L2.01883 0.539461C1.77995 0.30426 1.39265 0.30426 1.15377 0.539462Z" fill="#F1F4F6"/>
</svg>
