<svg width="22" height="22" viewBox="0 0 22 22" fill="none" xmlns="http://www.w3.org/2000/svg">
<rect width="22" height="22" rx="11" fill="#FF5752"/>
<path fill-rule="evenodd" clip-rule="evenodd" d="M5.58968 7.00375C5.39198 7.20145 5.39198 7.52199 5.58968 7.71969L12.9007 15.0307C13.0984 15.2284 13.4189 15.2284 13.6166 15.0307C13.8143 14.833 13.8143 14.5124 13.6166 14.3147L6.30563 7.00375C6.10793 6.80604 5.78739 6.80604 5.58968 7.00375ZM6.0003 12.8756V9.56383L10.5621 14.1256H7.2503C6.55994 14.1256 6.0003 13.566 6.0003 12.8756ZM13.5003 9.12563V12.8266L8.54935 7.87563H12.2503C12.9407 7.87563 13.5003 8.43528 13.5003 9.12563ZM16.6253 8.89332C16.6253 8.71038 16.4353 8.58939 16.2695 8.6668L14.2695 9.60089C14.1815 9.64198 14.1253 9.7303 14.1253 9.8274V12.3056C14.1253 12.4069 14.1865 12.4983 14.2803 12.5368L16.2803 13.3588C16.4448 13.4264 16.6253 13.3055 16.6253 13.1276V8.89332Z" fill="#F1F4F6"/>
</svg>
