<svg width="22" height="22" viewBox="0 0 22 22" fill="none" xmlns="http://www.w3.org/2000/svg">
<rect width="22" height="22" rx="11" fill="#FF5752"/>
<path fill-rule="evenodd" clip-rule="evenodd" d="M9.32519 11.0143V10.8513L11.1218 12.6202C11.0698 12.6251 11.0171 12.6276 10.9637 12.6276C10.0588 12.6276 9.32519 11.9053 9.32519 11.0143ZM10.9702 13.6396C11.3587 13.6396 11.7003 13.5862 11.9999 13.4848L12.9123 14.3832C12.5317 14.5767 12.0971 14.7158 11.6097 14.781L11.6092 15.5589L11.8695 15.5591C12.1685 15.5591 12.4109 15.7978 12.4109 16.0922C12.4109 16.3866 12.1685 16.6252 11.8695 16.6252H10.058C9.75905 16.6252 9.51666 16.3866 9.51666 16.0922C9.51666 15.7978 9.75905 15.5591 10.058 15.5591L10.3175 15.5589L10.3175 14.7805C8.14551 14.4917 7.03522 12.7715 7.05209 11.233C7.05567 10.9063 7.32755 10.6444 7.65934 10.6479C7.96901 10.6512 8.22143 10.8846 8.2508 11.1813L8.25361 11.2458C8.25025 11.5527 8.42434 12.142 8.74564 12.6003C9.20693 13.2583 9.91608 13.6396 10.9702 13.6396ZM13.7151 11.0235L14.777 12.069C14.8483 11.7866 14.8813 11.5023 14.8753 11.2268C14.8683 10.9002 14.5936 10.6411 14.2619 10.648C14.0121 10.6532 13.8011 10.8079 13.7151 11.0235ZM9.50487 6.87804L12.6023 9.92775V7.61331C12.6023 6.7223 11.8687 6 10.9637 6C10.3278 6 9.77643 6.35673 9.50487 6.87804ZM6.96181 6.44955C6.76274 6.64555 6.76275 6.96333 6.96181 7.15934L14.6923 14.7708C14.8914 14.9668 15.2141 14.9668 15.4132 14.7708C15.6123 14.5748 15.6123 14.257 15.4132 14.061L7.6827 6.44955C7.48363 6.25355 7.16088 6.25355 6.96181 6.44955Z" fill="#F1F4F6"/>
</svg>
