<svg width="22" height="22" viewBox="0 0 22 22" fill="none" xmlns="http://www.w3.org/2000/svg">
<rect width="22" height="22" rx="11" fill="#FF5752"/>
<path fill-rule="evenodd" clip-rule="evenodd" d="M6 9.56311L6 13.4774C6 14.1678 6.55964 14.7274 7.25 14.7274H9.52423L8.85411 15.5291C8.71807 15.6919 8.8338 15.9395 9.04593 15.9395H12.3763L9.84145 13.4046H7.60027C7.42768 13.4046 7.28777 13.2646 7.28777 13.0921L7.28777 10.8509L6 9.56311ZM12.4312 11.757L11.4032 10.7291L13.5421 8.59021H11.5C11.3274 8.59021 11.1875 8.4503 11.1875 8.27771V7.58008C11.1875 7.40749 11.3274 7.26758 11.5 7.26758H14.7302C15.4206 7.26758 15.9802 7.82722 15.9802 8.51758V11.407C15.9802 11.5796 15.8403 11.7195 15.6677 11.7195H15.005C14.8324 11.7195 14.6925 11.5796 14.6925 11.407V9.49576L12.4312 11.757ZM14.0787 13.4046L15.2763 14.6021C15.693 14.3995 15.9802 13.972 15.9802 13.4774V13.1385C15.9802 12.966 15.8403 12.826 15.6677 12.826H14.9585C14.8116 12.826 14.6925 12.9451 14.6925 13.0921C14.6925 13.2646 14.5526 13.4046 14.38 13.4046H14.0787ZM9.26435 8.59021L7.94172 7.26758H9.40523C9.57782 7.26758 9.71773 7.40749 9.71773 7.58008V8.27771C9.71773 8.4503 9.57782 8.59021 9.40523 8.59021H9.26435Z" fill="#F1F4F6"/>
<rect x="5.23047" y="7.36133" width="1.0125" height="13.1586" rx="0.50625" transform="rotate(-45 5.23047 7.36133)" fill="#F1F4F6"/>
</svg>
