<svg width="167" height="32" viewBox="0 0 167 32" fill="none" xmlns="http://www.w3.org/2000/svg">
    <path fill-rule="evenodd" clip-rule="evenodd" d="M124.832 7.36948C124.832 5.34424 123.176 4.63371 121.414 4.63371C119.054 4.63371 117.116 5.41523 115.319 6.23258L114.085 2.5021C116.094 1.57816 118.877 0.547852 122.189 0.547852C127.368 0.547852 129.87 3.17703 129.87 6.8719C129.87 13.3384 121.062 15.1502 119.582 20.089H130.187V24.2102H113.31C114.262 12.6634 124.832 11.9883 124.832 7.36948Z" fill="white"/>
    <path fill-rule="evenodd" clip-rule="evenodd" d="M137.621 14.724H139.735V12.2014C139.735 10.3896 139.876 8.29316 139.947 7.83141L134.697 14.8306C135.12 14.795 136.811 14.724 137.621 14.724ZM129.341 15.5413L140.968 0.619141H144.421V14.7241H147.874V18.6322H144.421V24.2103H139.735V18.6322H129.341V15.5413Z" fill="white"/>
    <path fill-rule="evenodd" clip-rule="evenodd" d="M6.29291 20.6209C9.2813 20.6209 10.5212 19.6591 10.5212 17.6397C10.5212 16.4856 10.0762 15.6841 9.34504 15.2351C8.55014 14.7543 7.40559 14.626 6.10215 14.626H4.67147V20.6209H6.29291ZM0.316162 3.08545H14.0819L13.0009 6.64394H4.67151V11.0679H6.10219C8.35942 11.0679 10.3624 11.3564 11.9201 12.1901C13.7642 13.1516 14.8768 14.8828 14.8768 17.5756C14.8768 21.3583 12.6196 24.2116 6.19757 24.2116H0.316162V3.08545Z" fill="white"/>
    <path fill-rule="evenodd" clip-rule="evenodd" d="M17.2295 9.04785H21.3943V15.1068C21.3943 16.357 21.3624 17.5752 21.2671 18.4407H21.3624C21.7121 17.8318 22.4435 16.5493 23.3017 15.2991L27.5937 9.04785H31.7902V24.2111H27.5937V18.1522C27.5937 16.902 27.6572 15.6838 27.7526 14.8183H27.6572C27.3076 15.4274 26.5445 16.7097 25.718 17.9599L21.4259 24.2111H17.2295V9.04785Z" fill="white"/>
    <path fill-rule="evenodd" clip-rule="evenodd" d="M37.99 12.6384H33.5074V9.04785H47.6866L46.5739 12.6384H42.2819V24.2111H37.99V12.6384Z" fill="white"/>
    <path fill-rule="evenodd" clip-rule="evenodd" d="M55.1258 20.9717C57.701 20.9717 58.9726 19.2727 58.9726 16.612C58.9726 13.6626 57.383 12.22 54.7443 12.22C54.2037 12.22 53.7586 12.252 53.2817 12.4124V20.651C53.854 20.8434 54.3946 20.9717 55.1258 20.9717ZM48.99 9.65592C50.6433 9.07885 52.6779 8.66211 54.9351 8.66211C60.5304 8.66211 63.3599 11.8359 63.3599 16.6126C63.3599 21.1647 60.308 24.5308 55.4439 24.5308C54.7125 24.5308 53.9813 24.4345 53.2818 24.2421V31.8077H48.99V9.65592Z" fill="white"/>
    <path fill-rule="evenodd" clip-rule="evenodd" d="M65.3948 9.04785H69.5596V15.1068C69.5596 16.357 69.5277 17.5752 69.4323 18.4407H69.5277C69.8774 17.8318 70.6088 16.5493 71.4669 15.2991L75.759 9.04785H79.9555V24.2111H75.759V18.1522C75.759 16.902 75.8225 15.6838 75.9179 14.8183H75.8225C75.4729 15.4274 74.7098 16.7097 73.8833 17.9599L69.5912 24.2111H65.3948V9.04785Z" fill="white"/>
    <path fill-rule="evenodd" clip-rule="evenodd" d="M82.7216 9.04829H87.0136V14.8508H88.603C90.4154 14.8508 90.3517 11.7731 91.687 9.97805C92.2592 9.1766 93.1493 8.66357 94.5165 8.66357C94.9615 8.66357 95.7562 8.72762 96.2333 8.88795V12.5748C95.9788 12.4785 95.661 12.4144 95.343 12.4144C94.8661 12.4144 94.5481 12.5748 94.2938 12.8952C93.5308 13.857 93.4038 15.8126 92.2909 16.5177V16.5818C93.0223 16.8704 93.5624 17.4153 94.0077 18.3771L96.71 24.2116H92.0683L90.2879 19.4669C89.9066 18.5374 89.5251 18.1206 89.1117 18.1206H87.0136V24.2116H82.7216V9.04829Z" fill="white"/>
    <path fill-rule="evenodd" clip-rule="evenodd" d="M97.4095 16.7086C97.4095 11.8999 101.097 8.66211 105.517 8.66211C107.551 8.66211 108.886 9.23918 109.681 9.75221V13.3747C108.6 12.5413 107.456 12.0923 105.993 12.0923C103.354 12.0923 101.797 14.1119 101.797 16.6766C101.797 19.5297 103.386 21.0686 105.803 21.0686C107.138 21.0686 108.155 20.6836 109.268 20.0428L110.476 22.9919C109.236 23.8895 107.297 24.5308 105.199 24.5308C100.207 24.5308 97.4095 21.1647 97.4095 16.7086Z" fill="white"/>
    <path fill-rule="evenodd" clip-rule="evenodd" d="M158.253 14.399C154.911 14.399 152.202 11.6581 152.202 8.27718C152.202 4.89627 154.911 2.15557 158.253 2.15557C161.595 2.15557 164.304 4.89627 164.304 8.27718C164.304 11.6581 161.595 14.399 158.253 14.399ZM158.253 0.405762C153.956 0.405762 150.473 3.92955 150.473 8.2765C150.473 12.6235 153.956 16.1475 158.253 16.1475C162.55 16.1475 166.033 12.6235 166.033 8.2765C166.033 3.92955 162.55 0.405762 158.253 0.405762Z" fill="white"/>
    <path fill-rule="evenodd" clip-rule="evenodd" d="M159.117 9.15152H157.388V9.1512V7.40208V4.77881H159.117V7.40208H161.711V9.1512H159.117V9.15152Z" fill="white"/>
</svg>
